<svg id="icn-linkedin" xmlns="http://www.w3.org/2000/svg" width="22.171" height="22.171" viewBox="0 0 22.171 22.171">
  <path id="Path_27013" data-name="Path 27013" d="M778.836,416.049a11.085,11.085,0,1,1-11.085-11.085,11.085,11.085,0,0,1,11.085,11.085" transform="translate(-756.665 -404.964)" fill="#4467ad"/>
  <path id="Path_27014" data-name="Path 27014" d="M816.108,456.145c.182-.2.332-.412.519-.588a2.848,2.848,0,0,1,2.049-.808,4.743,4.743,0,0,1,1.288.157,2.518,2.518,0,0,1,1.788,1.88,7.876,7.876,0,0,1,.238,2.154c0,1.531,0,3.063,0,4.594,0,.143-.04.181-.181.18q-1.183-.01-2.367,0c-.139,0-.169-.042-.168-.173q.006-2.186,0-4.371a3.934,3.934,0,0,0-.127-1.085,1.22,1.22,0,0,0-1.342-.951,1.467,1.467,0,0,0-1.541,1.464,5.469,5.469,0,0,0-.042.684c0,1.417,0,2.834,0,4.251,0,.141-.035.183-.179.182q-1.192-.011-2.384,0c-.127,0-.164-.033-.164-.162q.005-4.208,0-8.417c0-.139.045-.171.177-.17q1.132.008,2.264,0c.139,0,.175.044.172.175-.008.335,0,.671,0,1.006" transform="translate(-804.164 -446.572)" fill="#fefefe"/>
  <path id="Path_27015" data-name="Path 27015" d="M789.2,460.448c0,1.388,0,2.776,0,4.164,0,.154-.038.2-.2.2-.788-.009-1.577-.007-2.366,0-.126,0-.164-.031-.164-.161q.006-4.215,0-8.431c0-.116.028-.158.152-.157.8.005,1.6.007,2.4,0,.154,0,.175.058.174.19,0,1.4,0,2.8,0,4.2" transform="translate(-781.583 -447.668)" fill="#fefefe"/>
  <path id="Path_27016" data-name="Path 27016" d="M788.359,431.132a1.575,1.575,0,1,1-1.573-1.567,1.581,1.581,0,0,1,1.573,1.567" transform="translate(-780.521 -425.525)" fill="#fefefe"/>
</svg>
