<svg id="icn-phone" xmlns="http://www.w3.org/2000/svg" width="18.129" height="18.129" viewBox="0 0 18.129 18.129">
  <g id="call">
    <g id="call-2" data-name="call" transform="translate(1.511 1.511)">
      <path id="Vector" d="M15.085,12.335a1.923,1.923,0,0,1-.189.823,3.117,3.117,0,0,1-.514.77,3.405,3.405,0,0,1-1.239.891,3.793,3.793,0,0,1-1.473.287,6.3,6.3,0,0,1-2.462-.551,13.267,13.267,0,0,1-2.6-1.5,21.717,21.717,0,0,1-2.478-2.115,21.463,21.463,0,0,1-2.107-2.47A13.466,13.466,0,0,1,.544,5.9,6.362,6.362,0,0,1,0,3.429,3.908,3.908,0,0,1,.272,1.971,3.477,3.477,0,0,1,1.141.71,2.213,2.213,0,0,1,2.712,0a1.419,1.419,0,0,1,.612.136A1.231,1.231,0,0,1,3.83.559l1.752,2.47a2.585,2.585,0,0,1,.3.529,1.194,1.194,0,0,1,.106.461,1.025,1.025,0,0,1-.159.536,2.569,2.569,0,0,1-.423.536l-.574.6a.4.4,0,0,0-.121.3.686.686,0,0,0,.023.174c.023.06.045.106.06.151a6.268,6.268,0,0,0,.7.967c.34.393.7.793,1.1,1.193.408.4.8.77,1.2,1.11a5.8,5.8,0,0,0,.974.695c.038.015.083.038.136.06a.522.522,0,0,0,.189.03.416.416,0,0,0,.31-.128l.574-.567a2.318,2.318,0,0,1,.544-.423,1.006,1.006,0,0,1,.536-.159,1.205,1.205,0,0,1,.461.1,2.921,2.921,0,0,1,.529.295l2.5,1.775a1.146,1.146,0,0,1,.415.483A1.55,1.55,0,0,1,15.085,12.335Z" fill="none" stroke="#fff" stroke-width="1.3"/>
    </g>
    <path id="Vector-2" data-name="Vector" d="M0,0H18.129V18.129H0Z" fill="none" opacity="0"/>
  </g>
</svg>
