<svg id="icn-youtube" xmlns="http://www.w3.org/2000/svg" width="22.171" height="22.171" viewBox="0 0 22.171 22.171">
  <path id="Path_27009" data-name="Path 27009" d="M554.671,416.049a11.085,11.085,0,1,1-11.085-11.085,11.085,11.085,0,0,1,11.085,11.085" transform="translate(-532.5 -404.964)" fill="#da0000"/>
  <path id="Path_27010" data-name="Path 27010" d="M569.472,442.58a1.851,1.851,0,0,0-1.307-1.307,54.131,54.131,0,0,0-11.549,0,1.851,1.851,0,0,0-1.307,1.307,20.64,20.64,0,0,0,0,7.115A1.851,1.851,0,0,0,556.616,451a54.162,54.162,0,0,0,11.549,0,1.851,1.851,0,0,0,1.307-1.307,20.64,20.64,0,0,0,0-7.115m-8.559,5.775V443.92l3.84,2.217Z" transform="translate(-551.305 -435.052)" fill="#fff"/>
</svg>
