<svg xmlns="http://www.w3.org/2000/svg" width="60" height="60" viewBox="0 0 60 60">
  <g id="icn-vision" transform="translate(-725 -340)">
    <g id="Group_156783" data-name="Group 156783" transform="translate(503 -641)" opacity="0.26">
      <rect id="Rectangle_43136" data-name="Rectangle 43136" width="60" height="60" rx="10" transform="translate(222 981)" fill="none"/>
    </g>
    <g id="ocean" transform="translate(727.996 342.996)">
      <g id="Group_156786" data-name="Group 156786" transform="translate(0.001 41.718)">
        <g id="Group_156785" data-name="Group 156785" transform="translate(0)">
          <path id="Path_379735" data-name="Path 379735" d="M54.282,394.413a1.6,1.6,0,0,0-2.171-.616A13.892,13.892,0,0,1,46.4,395.19c-4.39,0-7.648-3.192-12.77-3.192-5.843,0-7.747,3.192-12.77,3.192-4.39,0-7.648-3.192-12.77-3.192A16.852,16.852,0,0,0,.82,393.8a1.6,1.6,0,1,0,1.556,2.787,13.893,13.893,0,0,1,5.713-1.394c4.39,0,7.648,3.192,12.77,3.192,5.843,0,7.747-3.192,12.77-3.192,4.39,0,7.648,3.192,12.77,3.192a16.851,16.851,0,0,0,7.269-1.8A1.6,1.6,0,0,0,54.282,394.413Z" transform="translate(-0.001 -391.998)" fill="#4a0f1f"/>
        </g>
      </g>
      <g id="Group_156788" data-name="Group 156788" transform="translate(19.312 19.158)">
        <g id="Group_156787" data-name="Group 156787">
          <path id="Path_379736" data-name="Path 379736" d="M197.533,190.49,196.664,180H182.388l-.92,10.43a42.769,42.769,0,0,1,6.335-.578V184.79a1.6,1.6,0,1,1,3.192,0v5.034A40.473,40.473,0,0,1,197.533,190.49Z" transform="translate(-181.468 -180.001)" fill="#4a0f1f"/>
        </g>
      </g>
      <g id="Group_156790" data-name="Group 156790" transform="translate(20.52 0.004)">
        <g id="Group_156789" data-name="Group 156789" transform="translate(0 0)">
          <path id="Path_379737" data-name="Path 379737" d="M206.121,11.044a1.6,1.6,0,0,0-1.59-1.462h-.2v-1.6a4.781,4.781,0,0,0-3.192-4.495V1.6a1.6,1.6,0,1,0-3.192,0V3.49a4.781,4.781,0,0,0-3.192,4.495V9.6a1.587,1.587,0,0,0-1.49,1.434l-.444,4.932h13.718Z" transform="translate(-192.819 -0.004)" fill="#4a0f1f"/>
        </g>
      </g>
      <g id="Group_156794" data-name="Group 156794" transform="translate(0.001 12.774)">
        <g id="Group_156793" data-name="Group 156793">
          <path id="Path_379739" data-name="Path 379739" d="M14.476,120H1.6a1.6,1.6,0,1,0,0,3.192H14.476a1.6,1.6,0,1,0,0-3.192Z" transform="translate(-0.004 -120.002)" fill="#4a0f1f"/>
        </g>
      </g>
      <g id="Group_156796" data-name="Group 156796" transform="translate(6.493 19.159)">
        <g id="Group_156795" data-name="Group 156795">
          <path id="Path_379740" data-name="Path 379740" d="M68.984,180H62.6a1.6,1.6,0,0,0,0,3.192h6.385a1.6,1.6,0,1,0,0-3.192Z" transform="translate(-61.003 -180.002)" fill="#4a0f1f"/>
        </g>
      </g>
      <g id="Group_156798" data-name="Group 156798" transform="translate(11.379 32.141)">
        <g id="Group_156797" data-name="Group 156797">
          <path id="Path_379741" data-name="Path 379741" d="M122.79,302c-7.549,0-12.476,1.362-14.643,4.05a5.833,5.833,0,0,0-1.22,2.714,28.8,28.8,0,0,1,4.784,1.536,13.129,13.129,0,0,0,4.7,1.277A10.755,10.755,0,0,0,121,310.337a18.892,18.892,0,0,1,8.176-1.953,20.791,20.791,0,0,1,8.075,1.916c.481.192.94.372,1.389.538a7.953,7.953,0,0,0,.113-.857C138.752,304.685,133.382,302,122.79,302Z" transform="translate(-106.926 -301.999)" fill="#4a0f1f"/>
        </g>
      </g>
      <g id="Group_156800" data-name="Group 156800" transform="translate(0.001 48.103)">
        <g id="Group_156799" data-name="Group 156799" transform="translate(0)">
          <path id="Path_379742" data-name="Path 379742" d="M54.282,454.413a1.6,1.6,0,0,0-2.171-.616A13.892,13.892,0,0,1,46.4,455.19c-4.39,0-7.648-3.192-12.77-3.192-5.843,0-7.747,3.192-12.77,3.192-4.39,0-7.648-3.192-12.77-3.192A16.853,16.853,0,0,0,.82,453.8a1.6,1.6,0,1,0,1.556,2.787,13.893,13.893,0,0,1,5.713-1.394c4.39,0,7.648,3.192,12.77,3.192,5.843,0,7.747-3.192,12.77-3.192,4.39,0,7.648,3.192,12.77,3.192a16.852,16.852,0,0,0,7.269-1.8A1.6,1.6,0,0,0,54.282,454.413Z" transform="translate(-0.001 -451.998)" fill="#4a0f1f"/>
        </g>
      </g>
    </g>
  </g>
</svg>
