<svg id="icn-facebook" xmlns="http://www.w3.org/2000/svg" width="22.171" height="22.171" viewBox="0 0 22.171 22.171">
  <path id="Path_27077" data-name="Path 27077" d="M106.341,219.031a11.085,11.085,0,1,0-12.818,10.951v-7.746H90.709v-3.2h2.815v-2.442c0-2.778,1.655-4.313,4.187-4.313a17.053,17.053,0,0,1,2.481.216v2.728h-1.4a1.6,1.6,0,0,0-1.807,1.731v2.079h3.075l-.492,3.2H96.988v7.746a11.088,11.088,0,0,0,9.353-10.951" transform="translate(-84.17 -207.946)" fill="#4676ed"/>
  <path id="Path_27078" data-name="Path 27078" d="M132.847,244.273l.492-3.2h-3.075V238.99a1.6,1.6,0,0,1,1.807-1.731h1.4V234.53a17.053,17.053,0,0,0-2.481-.216c-2.532,0-4.187,1.535-4.187,4.313v2.442h-2.815v3.2H126.8v7.746a11.206,11.206,0,0,0,3.464,0v-7.746Z" transform="translate(-117.446 -229.984)" fill="#fff"/>
</svg>
