<svg xmlns="http://www.w3.org/2000/svg" width="38" height="36" viewBox="0 0 38 36">
  <g id="icn-search" transform="translate(-1209 -28)">
    <rect id="Rectangle_39157" data-name="Rectangle 39157" width="38" height="36" rx="10" transform="translate(1209 28)" fill="#fff"/>
    <g id="Group_128507" data-name="Group 128507" transform="translate(-2.002 2)">
      <g id="search_1_" data-name="search (1)" transform="translate(1220 34)">
        <path id="Path_347703" data-name="Path 347703" d="M8.051,16.128a8.031,8.031,0,0,0,4.935-1.7l5.321,5.321a1,1,0,0,0,1.415-1.415L14.4,13.018a8.046,8.046,0,1,0-6.35,3.11ZM3.775,3.807a6.047,6.047,0,1,1,0,8.552h0a6.025,6.025,0,0,1-.031-8.52l.031-.031Z" transform="translate(0 -0.035)" fill="#fff"/>
      </g>
    </g>
  </g>
</svg>
