<svg id="icn-globe" xmlns="http://www.w3.org/2000/svg" width="18.414" height="18.414" viewBox="0 0 18.414 18.414">
  <g id="icn-global">
    <path id="Vector" d="M15.345,7.673A7.673,7.673,0,1,1,7.673,0,7.673,7.673,0,0,1,15.345,7.673Z" transform="translate(1.535 1.535)" fill="none" stroke="#fff" stroke-linecap="round" stroke-linejoin="round" stroke-width="1.2"/>
    <path id="Vector-2" data-name="Vector" d="M.355,0h.767a21.808,21.808,0,0,0,0,13.811H.355" transform="translate(5.783 2.302)" fill="none" stroke="#fff" stroke-linecap="round" stroke-linejoin="round" stroke-width="1.2"/>
    <path id="Vector-3" data-name="Vector" d="M0,0A21.808,21.808,0,0,1,0,13.811" transform="translate(11.509 2.302)" fill="none" stroke="#fff" stroke-linecap="round" stroke-linejoin="round" stroke-width="1.2"/>
    <path id="Vector-4" data-name="Vector" d="M0,.767V0A21.808,21.808,0,0,0,13.811,0V.767" transform="translate(2.302 11.509)" fill="none" stroke="#fff" stroke-linecap="round" stroke-linejoin="round" stroke-width="1.2"/>
    <path id="Vector-5" data-name="Vector" d="M0,1.122a21.808,21.808,0,0,1,13.811,0" transform="translate(2.302 5.783)" fill="none" stroke="#fff" stroke-linecap="round" stroke-linejoin="round" stroke-width="1.2"/>
    <path id="Vector-6" data-name="Vector" d="M0,0H18.414V18.414H0Z" transform="translate(18.414 18.414) rotate(180)" fill="none" opacity="0"/>
  </g>
</svg>
