<svg id="icn-twitter" xmlns="http://www.w3.org/2000/svg" width="22.171" height="22.171" viewBox="0 0 22.171 22.171">
  <path id="Path_27004" data-name="Path 27004" d="M1003,219.031a11.085,11.085,0,1,1-11.085-11.085A11.085,11.085,0,0,1,1003,219.031" transform="translate(-980.83 -207.946)" fill="#5a99ec" fill-rule="evenodd"/>
  <path id="Path_27005" data-name="Path 27005" d="M1011.728,254.981a8.318,8.318,0,0,0,8.375-8.375q0-.191-.008-.381a5.992,5.992,0,0,0,1.468-1.524,5.876,5.876,0,0,1-1.69.463,2.954,2.954,0,0,0,1.294-1.628,5.9,5.9,0,0,1-1.869.715,2.946,2.946,0,0,0-5.016,2.684,8.357,8.357,0,0,1-6.067-3.075,2.946,2.946,0,0,0,.911,3.93,2.923,2.923,0,0,1-1.333-.368c0,.012,0,.025,0,.038a2.945,2.945,0,0,0,2.362,2.886,2.94,2.94,0,0,1-1.329.05,2.947,2.947,0,0,0,2.75,2.044,5.906,5.906,0,0,1-3.656,1.26,5.974,5.974,0,0,1-.7-.041,8.333,8.333,0,0,0,4.512,1.322" transform="translate(-1002.883 -237.511)" fill="#fff"/>
</svg>
