<svg xmlns="http://www.w3.org/2000/svg" width="40" height="40" viewBox="0 0 40 40">
  <g id="icn-customer-centricity" transform="translate(-222 -981)">
    <rect id="Rectangle_43136" data-name="Rectangle 43136" width="40" height="40" rx="10" transform="translate(222 981)" fill="#ddb973"/>
    <g id="settings_1_" data-name="settings (1)" transform="translate(230.832 989.832)">
      <g id="Group_154947" data-name="Group 154947" transform="translate(6.697 11.899)">
        <g id="Group_154946" data-name="Group 154946">
          <path id="Path_369116" data-name="Path 369116" d="M160.33,271a3.347,3.347,0,0,1-3.27,2.634A3.3,3.3,0,0,1,153.833,271h-1.317a4.613,4.613,0,0,0,9.132,0Z" transform="translate(-152.516 -271)" fill="#fff"/>
        </g>
      </g>
      <g id="Group_154949" data-name="Group 154949" transform="translate(0 11.899)">
        <g id="Group_154948" data-name="Group 154948">
          <path id="Path_369117" data-name="Path 369117" d="M17.146,271A5.919,5.919,0,0,1,5.38,271H0v.659a.659.659,0,0,0,.451.625l2.71.884a9.255,9.255,0,0,0,.363.888l-1.25,2.512a.659.659,0,0,0,.124.759l1.857,1.857a.659.659,0,0,0,.759.124l2.512-1.25a9.262,9.262,0,0,0,.888.363l.884,2.71a.659.659,0,0,0,.625.451H12.6a.659.659,0,0,0,.625-.451l.884-2.71a9.246,9.246,0,0,0,.888-.363l2.512,1.25a.658.658,0,0,0,.759-.124l1.857-1.857a.659.659,0,0,0,.124-.759L19,274.056a9.259,9.259,0,0,0,.363-.888l2.666-.884a.659.659,0,0,0,.451-.625V271Z" transform="translate(0 -271)" fill="#fff"/>
        </g>
      </g>
      <g id="Group_154951" data-name="Group 154951" transform="translate(9.386 11.899)">
        <g id="Group_154950" data-name="Group 154950">
          <path id="Path_369118" data-name="Path 369118" d="M213.763,271a1.973,1.973,0,0,0,1.855,1.317,2.03,2.03,0,0,0,1.9-1.317Z" transform="translate(-213.763 -271)" fill="#fff"/>
        </g>
      </g>
      <g id="Group_154953" data-name="Group 154953" transform="translate(8.606)">
        <g id="Group_154952" data-name="Group 154952">
          <path id="Path_369119" data-name="Path 369119" d="M198.634,0a2.635,2.635,0,0,0,0,5.269,2.675,2.675,0,0,0,2.678-2.635A2.675,2.675,0,0,0,198.634,0Z" transform="translate(-196)" fill="#fff"/>
        </g>
      </g>
      <g id="Group_154955" data-name="Group 154955" transform="translate(15.236)">
        <g id="Group_154954" data-name="Group 154954">
          <path id="Path_369120" data-name="Path 369120" d="M349.635,0a2.635,2.635,0,1,0,2.635,2.635A2.637,2.637,0,0,0,349.635,0Z" transform="translate(-347)" fill="#fff"/>
        </g>
      </g>
      <g id="Group_154957" data-name="Group 154957" transform="translate(2.02)">
        <g id="Group_154956" data-name="Group 154956">
          <path id="Path_369121" data-name="Path 369121" d="M48.635,0a2.635,2.635,0,1,0,2.635,2.635A2.637,2.637,0,0,0,48.635,0Z" transform="translate(-46)" fill="#fff"/>
        </g>
      </g>
      <g id="Group_154959" data-name="Group 154959" transform="translate(14.814 5.879)">
        <g id="Group_154958" data-name="Group 154958">
          <path id="Path_369122" data-name="Path 369122" d="M342.68,133.883a3.922,3.922,0,0,1-4.486.006,4.8,4.8,0,0,0-.818.577,6.017,6.017,0,0,1,2.358,4.12h5.309v-.659A4.666,4.666,0,0,0,342.68,133.883Z" transform="translate(-337.376 -133.883)" fill="#fff"/>
        </g>
      </g>
      <g id="Group_154961" data-name="Group 154961" transform="translate(6.677 6.586)">
        <g id="Group_154960" data-name="Group 154960">
          <path id="Path_369123" data-name="Path 369123" d="M156.632,150a4.656,4.656,0,0,0-4.563,4h9.171A4.7,4.7,0,0,0,156.632,150Z" transform="translate(-152.069 -150)" fill="#fff"/>
        </g>
      </g>
      <g id="Group_154963" data-name="Group 154963" transform="translate(0 5.879)">
        <g id="Group_154962" data-name="Group 154962">
          <path id="Path_369124" data-name="Path 369124" d="M6.894,133.889a3.922,3.922,0,0,1-4.486-.006A4.706,4.706,0,0,0,0,137.928v.659H5.353a6.017,6.017,0,0,1,2.358-4.12A4.8,4.8,0,0,0,6.894,133.889Z" transform="translate(0 -133.883)" fill="#fff"/>
        </g>
      </g>
    </g>
  </g>
</svg>
