<svg xmlns="http://www.w3.org/2000/svg" width="40" height="40" viewBox="0 0 40 40">
  <g id="icn-collaborate" transform="translate(-222 -981)">
    <path id="Path_380278" data-name="Path 380278" d="M6.667,0H33.333A6.667,6.667,0,0,1,40,6.667V33.333A6.667,6.667,0,0,1,33.333,40H6.667A6.667,6.667,0,0,1,0,33.333V6.667A6.667,6.667,0,0,1,6.667,0Z" transform="translate(222 981)" fill="#ddb973"/>
    <g id="jigsaw" transform="translate(230.955 990.179)">
      <path id="Path_369077" data-name="Path 369077" d="M310.173,3.2a1.649,1.649,0,1,1,0,2.457V8.83h3.168a1.649,1.649,0,1,0,2.457,0H319V1.1A1.1,1.1,0,0,0,317.9,0h-7.731Z" transform="translate(-296.603 0)" fill="#fff"/>
      <path id="Path_369078" data-name="Path 369078" d="M144.514,311.34a1.643,1.643,0,0,1,.419-1.166h-3.168v3.168a1.649,1.649,0,1,0,0,2.457V319H149.5a1.1,1.1,0,0,0,1.1-1.1v-7.731h-3.2a1.649,1.649,0,1,1-2.876,1.166Z" transform="translate(-132.935 -296.604)" fill="#fff"/>
      <path id="Path_369079" data-name="Path 369079" d="M9.929,111.134a1.642,1.642,0,0,0-1.1.42v-3.2H1.1a1.1,1.1,0,0,0-1.1,1.1v6.418H1.48a2.974,2.974,0,0,1,2.84-2.746l.114,0a2.965,2.965,0,0,1,2.954,2.748H8.83v-1.856a1.649,1.649,0,1,0,1.1-2.877Z" transform="translate(0 -103.609)" fill="#fff"/>
      <path id="Path_369080" data-name="Path 369080" d="M5.6,256.563a2.938,2.938,0,0,1-.826-2.167,2.974,2.974,0,0,1,2.746-2.84v-1.443H5.662a1.649,1.649,0,1,0-2.457,0H0v7.731a1.1,1.1,0,0,0,1.1,1.1H7.517v-1.48a2.978,2.978,0,0,1-1.92-.9Z" transform="translate(0 -236.542)" fill="#fff"/>
    </g>
  </g>
</svg>
