<svg xmlns="http://www.w3.org/2000/svg" width="75" height="13.924" viewBox="0 0 75 13.924">
  <g id="img-selected-dots" transform="translate(1301.919 -7995.722)">
    <g id="Rectangle_44604" data-name="Rectangle 44604" transform="translate(-1301.919 7996.184)" fill="#fff" stroke="#707070" stroke-width="1" opacity="0">
      <rect width="75" height="13" stroke="none"/>
      <rect x="0.5" y="0.5" width="74" height="12" fill="none"/>
    </g>
    <path id="Path_382826" data-name="Path 382826" d="M335.88,84.568A1.178,1.178,0,1,1,334.7,83.39,1.178,1.178,0,0,1,335.88,84.568Z" transform="translate(-1635.444 7912.332)" fill="#e00800"/>
    <path id="Path_382827" data-name="Path 382827" d="M343.455,84.568a1.178,1.178,0,1,1-1.178-1.178A1.178,1.178,0,0,1,343.455,84.568Z" transform="translate(-1637.818 7912.332)" fill="#e00800"/>
    <path id="Path_382828" data-name="Path 382828" d="M351.031,84.568a1.178,1.178,0,1,1-1.178-1.178A1.178,1.178,0,0,1,351.031,84.568Z" transform="translate(-1640.191 7912.332)" fill="#e00800"/>
    <path id="Path_382829" data-name="Path 382829" d="M358.606,84.568a1.178,1.178,0,1,1-1.178-1.178A1.178,1.178,0,0,1,358.606,84.568Z" transform="translate(-1642.565 7912.332)" fill="#e00800"/>
    <path id="Path_382830" data-name="Path 382830" d="M366.181,84.568A1.178,1.178,0,1,1,365,83.39,1.178,1.178,0,0,1,366.181,84.568Z" transform="translate(-1644.939 7912.332)" fill="#e00800"/>
    <path id="Path_382831" data-name="Path 382831" d="M373.756,84.568a1.178,1.178,0,1,1-1.178-1.178A1.177,1.177,0,0,1,373.756,84.568Z" transform="translate(-1647.312 7912.332)" fill="#e00800"/>
    <circle id="Ellipse_2925" data-name="Ellipse 2925" cx="1.178" cy="1.178" r="1.178" transform="translate(-1270.71 7995.722)" fill="#e00800"/>
    <path id="Path_382832" data-name="Path 382832" d="M388.907,84.568a1.178,1.178,0,1,1-1.178-1.178A1.178,1.178,0,0,1,388.907,84.568Z" transform="translate(-1652.06 7912.332)" fill="#e00800"/>
    <path id="Path_382833" data-name="Path 382833" d="M396.482,84.568A1.178,1.178,0,1,1,395.3,83.39,1.178,1.178,0,0,1,396.482,84.568Z" transform="translate(-1654.433 7912.332)" fill="#e00800"/>
    <path id="Path_382838" data-name="Path 382838" d="M364.466,92.992a1.178,1.178,0,1,1-1.178-1.178A1.178,1.178,0,0,1,364.466,92.992Z" transform="translate(-1644.401 7909.692)" fill="#e00800"/>
    <path id="Path_382839" data-name="Path 382839" d="M372.041,92.992a1.178,1.178,0,1,1-1.178-1.178A1.178,1.178,0,0,1,372.041,92.992Z" transform="translate(-1646.775 7909.692)" fill="#e00800"/>
    <path id="Path_382840" data-name="Path 382840" d="M379.617,92.992a1.178,1.178,0,1,1-1.178-1.178A1.178,1.178,0,0,1,379.617,92.992Z" transform="translate(-1649.148 7909.692)" fill="#e00800"/>
    <path id="Path_382841" data-name="Path 382841" d="M387.192,92.992a1.178,1.178,0,1,1-1.178-1.178A1.178,1.178,0,0,1,387.192,92.992Z" transform="translate(-1651.522 7909.692)" fill="#e00800"/>
    <path id="Path_382842" data-name="Path 382842" d="M394.767,92.992a1.178,1.178,0,1,1-1.178-1.178A1.178,1.178,0,0,1,394.767,92.992Z" transform="translate(-1653.896 7909.692)" fill="#e00800"/>
    <path id="Path_382843" data-name="Path 382843" d="M402.342,92.992a1.178,1.178,0,1,1-1.178-1.178A1.178,1.178,0,0,1,402.342,92.992Z" transform="translate(-1656.27 7909.692)" fill="#e00800"/>
    <path id="Path_382844" data-name="Path 382844" d="M409.918,92.992a1.178,1.178,0,1,1-1.178-1.178A1.178,1.178,0,0,1,409.918,92.992Z" transform="translate(-1658.643 7909.692)" fill="#e00800"/>
    <path id="Path_382845" data-name="Path 382845" d="M417.493,92.992a1.178,1.178,0,1,1-1.178-1.178A1.178,1.178,0,0,1,417.493,92.992Z" transform="translate(-1661.017 7909.692)" fill="#e00800"/>
    <path id="Path_382846" data-name="Path 382846" d="M425.068,92.992a1.178,1.178,0,1,1-1.178-1.178A1.178,1.178,0,0,1,425.068,92.992Z" transform="translate(-1663.391 7909.692)" fill="#e00800"/>
    <path id="Path_382847" data-name="Path 382847" d="M432.644,92.992a1.178,1.178,0,1,1-1.178-1.178A1.178,1.178,0,0,1,432.644,92.992Z" transform="translate(-1665.764 7909.692)" fill="#e00800"/>
    <path id="Path_382848" data-name="Path 382848" d="M440.219,92.992a1.178,1.178,0,1,1-1.178-1.178A1.178,1.178,0,0,1,440.219,92.992Z" transform="translate(-1668.138 7909.692)" fill="#e00800"/>
    <path id="Path_382853" data-name="Path 382853" d="M400.627,101.416a1.178,1.178,0,1,1-1.178-1.178A1.178,1.178,0,0,1,400.627,101.416Z" transform="translate(-1655.732 7907.053)" fill="#e00800"/>
    <path id="Path_382854" data-name="Path 382854" d="M408.2,101.416a1.178,1.178,0,1,1-1.178-1.178A1.178,1.178,0,0,1,408.2,101.416Z" transform="translate(-1658.106 7907.053)" fill="#e00800"/>
    <path id="Path_382855" data-name="Path 382855" d="M415.778,101.416a1.178,1.178,0,1,1-1.178-1.178A1.178,1.178,0,0,1,415.778,101.416Z" transform="translate(-1660.48 7907.053)" fill="#e00800"/>
    <path id="Path_382856" data-name="Path 382856" d="M423.353,101.416a1.178,1.178,0,1,1-1.178-1.178A1.178,1.178,0,0,1,423.353,101.416Z" transform="translate(-1662.853 7907.053)" fill="#e00800"/>
    <path id="Path_382857" data-name="Path 382857" d="M430.928,101.416a1.178,1.178,0,1,1-1.178-1.178A1.178,1.178,0,0,1,430.928,101.416Z" transform="translate(-1665.227 7907.053)" fill="#e00800"/>
  </g>
</svg>
