<svg id="img-header-dots" xmlns="http://www.w3.org/2000/svg" width="478" height="356.555" viewBox="0 0 478 356.555">
  <g id="Group_156719" data-name="Group 156719" transform="translate(0 11.33)">
    <path id="Path_372993" data-name="Path 372993" d="M0,.015A.015.015,0,1,1,.015.03.015.015,0,0,1,0,.015Z" fill="#e8e8e8"/>
    <path id="Path_372994" data-name="Path 372994" d="M0,.017A.017.017,0,0,1,.017,0,.017.017,0,0,1,.034.017.017.017,0,0,1,.017.034.017.017,0,0,1,0,.017Z" transform="translate(11.147 17.511)" fill="#e8e8e8"/>
    <path id="Path_372995" data-name="Path 372995" d="M0,.019A.019.019,0,0,1,.019,0,.019.019,0,0,1,.038.019.019.019,0,0,1,.019.038.019.019,0,0,1,0,.019Z" transform="translate(23.348 34.301)" fill="#e8e8e8"/>
    <path id="Path_372996" data-name="Path 372996" d="M0,.021A.021.021,0,0,1,.021,0,.02.02,0,0,1,.042.021.021.021,0,0,1,.021.042.021.021,0,0,1,0,.021Z" transform="translate(36.637 50.243)" fill="#e8e8e8"/>
    <path id="Path_372997" data-name="Path 372997" d="M0,.023A.023.023,0,0,1,.024,0,.023.023,0,0,1,.047.023.024.024,0,0,1,.024.046.024.024,0,0,1,0,.023Z" transform="translate(51.047 65.178)" fill="#e8e8e8"/>
    <ellipse id="Ellipse_1880" data-name="Ellipse 1880" cx="0.025" cy="0.025" rx="0.025" ry="0.025" transform="translate(66.603 78.915)" fill="#e8e8e8"/>
    <path id="Path_372998" data-name="Path 372998" d="M0,.028a.028.028,0,1,1,.055,0A.028.028,0,0,1,0,.028Z" transform="translate(83.306 91.229)" fill="#e8e8e8"/>
    <path id="Path_372999" data-name="Path 372999" d="M0,.03A.029.029,0,0,1,.03,0a.029.029,0,0,1,.03.03A.03.03,0,1,1,0,.03Z" transform="translate(101.375 101.392)" fill="#e8e8e8"/>
    <path id="Path_373000" data-name="Path 373000" d="M0,.032A.032.032,0,0,1,.032,0,.031.031,0,0,1,.063.032.031.031,0,0,1,.032.063.031.031,0,0,1,0,.032Z" transform="translate(121.015 108.038)" fill="#e8e8e8"/>
    <path id="Path_373001" data-name="Path 373001" d="M0,.034a.034.034,0,0,1,.068,0A.034.034,0,0,1,.034.068.034.034,0,0,1,0,.034Z" transform="translate(141.434 111.708)" fill="#e8e8e8"/>
    <path id="Path_373002" data-name="Path 373002" d="M0,.036A.036.036,0,0,1,.036,0a.036.036,0,1,1,0,.072A.036.036,0,0,1,0,.036Z" transform="translate(162.126 113.316)" fill="#e8e8e8"/>
    <path id="Path_373003" data-name="Path 373003" d="M0,.038a.038.038,0,0,1,.077,0A.038.038,0,1,1,0,.038Z" transform="translate(182.88 113.753)" fill="#e8e8e8"/>
    <path id="Path_373004" data-name="Path 373004" d="M0,.04a.04.04,0,1,1,.04.04A.04.04,0,0,1,0,.04Z" transform="translate(203.639 113.82)" fill="#e8e8e8"/>
    <path id="Path_373005" data-name="Path 373005" d="M0,.043A.042.042,0,1,1,.042.085.042.042,0,0,1,0,.043Z" transform="translate(224.392 114.301)" fill="#e8e8e8"/>
    <path id="Path_373006" data-name="Path 373006" d="M0,.045A.045.045,0,1,1,.045.089.044.044,0,0,1,0,.045Z" transform="translate(245.072 116.053)" fill="#e8e8e8"/>
    <path id="Path_373007" data-name="Path 373007" d="M0,.047A.047.047,0,0,1,.046,0,.047.047,0,0,1,.093.047.046.046,0,0,1,.046.094.046.046,0,0,1,0,.047Z" transform="translate(265.419 120.084)" fill="#e8e8e8"/>
    <path id="Path_373008" data-name="Path 373008" d="M0,.049A.049.049,0,0,1,.049,0,.05.05,0,0,1,.1.049a.049.049,0,0,1-.1,0Z" transform="translate(284.786 127.463)" fill="#e8e8e8"/>
    <path id="Path_373009" data-name="Path 373009" d="M0,.051A.051.051,0,0,1,.051,0a.051.051,0,0,1,0,.1A.05.05,0,0,1,0,.051Z" transform="translate(302.097 138.838)" fill="#e8e8e8"/>
    <ellipse id="Ellipse_1881" data-name="Ellipse 1881" cx="0.053" cy="0.053" rx="0.053" ry="0.053" transform="translate(316.501 153.745)" fill="#e8e8e8"/>
    <ellipse id="Ellipse_1882" data-name="Ellipse 1882" cx="0.054" cy="0.054" rx="0.054" ry="0.054" transform="translate(328.549 170.635)" fill="#e8e8e8"/>
    <ellipse id="Ellipse_1883" data-name="Ellipse 1883" cx="0.055" cy="0.055" rx="0.055" ry="0.055" transform="translate(338.713 188.728)" fill="#e8e8e8"/>
    <ellipse id="Ellipse_1884" data-name="Ellipse 1884" cx="0.057" cy="0.057" rx="0.057" ry="0.057" transform="translate(347.538 207.516)" fill="#e8e8e8"/>
    <path id="Path_373010" data-name="Path 373010" d="M0,.059A.059.059,0,0,1,.059,0,.058.058,0,0,1,.116.059.058.058,0,0,1,0,.059Z" transform="translate(355.622 226.636)" fill="#e8e8e8"/>
    <path id="Path_373011" data-name="Path 373011" d="M0,.06A.06.06,0,0,1,.06,0,.06.06,0,0,1,.119.06.059.059,0,0,1,.06.119.059.059,0,0,1,0,.06Z" transform="translate(363.564 245.817)" fill="#e8e8e8"/>
    <ellipse id="Ellipse_1885" data-name="Ellipse 1885" cx="0.061" cy="0.061" rx="0.061" ry="0.061" transform="translate(371.96 264.802)" fill="#e8e8e8"/>
    <ellipse id="Ellipse_1886" data-name="Ellipse 1886" cx="0.062" cy="0.062" rx="0.062" ry="0.062" transform="translate(381.421 283.276)" fill="#e8e8e8"/>
    <ellipse id="Ellipse_1887" data-name="Ellipse 1887" cx="0.063" cy="0.063" rx="0.063" ry="0.063" transform="translate(392.541 300.794)" fill="#e8e8e8"/>
    <path id="Path_373012" data-name="Path 373012" d="M0,.064a.064.064,0,1,1,.128,0A.065.065,0,0,1,.064.129.065.065,0,0,1,0,.064Z" transform="translate(405.801 316.745)" fill="#e8e8e8"/>
    <path id="Path_373013" data-name="Path 373013" d="M0,.066A.066.066,0,0,1,.066,0a.066.066,0,1,1,0,.131A.065.065,0,0,1,0,.066Z" transform="translate(421.377 330.435)" fill="#e8e8e8"/>
    <path id="Path_373014" data-name="Path 373014" d="M0,.068a.067.067,0,1,1,.134,0A.067.067,0,1,1,0,.068Z" transform="translate(439.524 340.379)" fill="#e8e8e8"/>
    <ellipse id="Ellipse_1888" data-name="Ellipse 1888" cx="0.069" cy="0.069" rx="0.069" ry="0.069" transform="translate(459.687 345.086)" fill="#e8e8e8"/>
  </g>
  <g id="Group_156720" data-name="Group 156720" transform="translate(20.337 16.379)">
    <ellipse id="Ellipse_1889" data-name="Ellipse 1889" cx="0.209" cy="0.209" rx="0.209" ry="0.209" transform="translate(0 0)" fill="#e8e8e8"/>
    <path id="Path_373015" data-name="Path 373015" d="M.226.452A.226.226,0,1,1,.452.226.226.226,0,0,1,.226.452Z" transform="translate(12.186 16.776)" fill="#e8e8e8"/>
    <path id="Path_373016" data-name="Path 373016" d="M.244.487A.243.243,0,1,1,.487.244.244.244,0,0,1,.244.487Z" transform="translate(25.46 32.703)" fill="#e8e8e8"/>
    <path id="Path_373017" data-name="Path 373017" d="M.26.521A.26.26,0,1,1,.522.26.26.26,0,0,1,.26.521Z" transform="translate(39.857 47.624)" fill="#e8e8e8"/>
    <path id="Path_373018" data-name="Path 373018" d="M.278.555A.278.278,0,1,1,.555.277.278.278,0,0,1,.278.555Z" transform="translate(55.398 61.347)" fill="#e8e8e8"/>
    <path id="Path_373019" data-name="Path 373019" d="M.295.591a.3.3,0,1,1,.3-.3A.3.3,0,0,1,.295.591Z" transform="translate(72.085 73.646)" fill="#e8e8e8"/>
    <ellipse id="Ellipse_1890" data-name="Ellipse 1890" cx="0.312" cy="0.312" rx="0.312" ry="0.312" transform="translate(90.14 83.794)" fill="#e8e8e8"/>
    <ellipse id="Ellipse_1891" data-name="Ellipse 1891" cx="0.33" cy="0.33" rx="0.33" ry="0.33" transform="translate(109.763 90.424)" fill="#e8e8e8"/>
    <ellipse id="Ellipse_1892" data-name="Ellipse 1892" cx="0.347" cy="0.347" rx="0.347" ry="0.347" transform="translate(130.168 94.079)" fill="#e8e8e8"/>
    <ellipse id="Ellipse_1893" data-name="Ellipse 1893" cx="0.364" cy="0.364" rx="0.364" ry="0.364" transform="translate(150.841 95.672)" fill="#e8e8e8"/>
    <path id="Path_373020" data-name="Path 373020" d="M.381.763A.381.381,0,1,1,.763.382.381.381,0,0,1,.381.763Z" transform="translate(171.578 96.094)" fill="#e8e8e8"/>
    <path id="Path_373021" data-name="Path 373021" d="M.4.8A.4.4,0,1,1,.8.4.4.4,0,0,1,.4.8Z" transform="translate(192.324 96.146)" fill="#e8e8e8"/>
    <path id="Path_373022" data-name="Path 373022" d="M.416.832A.416.416,0,1,1,.832.416.416.416,0,0,1,.416.832Z" transform="translate(213.061 96.612)" fill="#e8e8e8"/>
    <ellipse id="Ellipse_1894" data-name="Ellipse 1894" cx="0.434" cy="0.434" rx="0.434" ry="0.434" transform="translate(233.725 98.347)" fill="#e8e8e8"/>
    <path id="Path_373023" data-name="Path 373023" d="M.451.9A.451.451,0,1,1,.9.45.45.45,0,0,1,.451.9Z" transform="translate(254.057 102.363)" fill="#e8e8e8"/>
    <path id="Path_373024" data-name="Path 373024" d="M.469.937A.468.468,0,1,1,.936.469.469.469,0,0,1,.469.937Z" transform="translate(273.408 109.726)" fill="#e8e8e8"/>
    <path id="Path_373025" data-name="Path 373025" d="M.485.97A.485.485,0,1,1,.97.485.484.484,0,0,1,.485.97Z" transform="translate(290.704 121.083)" fill="#e8e8e8"/>
    <path id="Path_373026" data-name="Path 373026" d="M.5,1.006A.5.5,0,1,1,1,.5.5.5,0,0,1,.5,1.006Z" transform="translate(305.093 135.973)" fill="#e8e8e8"/>
    <path id="Path_373027" data-name="Path 373027" d="M.52,1.04a.52.52,0,1,1,.52-.52A.519.519,0,0,1,.52,1.04Z" transform="translate(317.127 152.846)" fill="#e8e8e8"/>
    <path id="Path_373028" data-name="Path 373028" d="M.538,1.075A.537.537,0,1,1,1.075.537.538.538,0,0,1,.538,1.075Z" transform="translate(327.275 170.922)" fill="#e8e8e8"/>
    <path id="Path_373029" data-name="Path 373029" d="M.554,1.109A.554.554,0,1,1,1.109.554.555.555,0,0,1,.554,1.109Z" transform="translate(336.084 189.693)" fill="#e8e8e8"/>
    <path id="Path_373030" data-name="Path 373030" d="M.572,1.144A.572.572,0,1,1,1.143.572.572.572,0,0,1,.572,1.144Z" transform="translate(344.152 208.796)" fill="#e8e8e8"/>
    <path id="Path_373031" data-name="Path 373031" d="M.589,1.178A.589.589,0,1,1,1.178.589.589.589,0,0,1,.589,1.178Z" transform="translate(352.077 227.961)" fill="#e8e8e8"/>
    <path id="Path_373032" data-name="Path 373032" d="M.607,1.213A.606.606,0,1,1,1.213.606.606.606,0,0,1,.607,1.213Z" transform="translate(360.458 246.93)" fill="#e8e8e8"/>
    <path id="Path_373033" data-name="Path 373033" d="M.624,1.247A.624.624,0,1,1,1.247.623.624.624,0,0,1,.624,1.247Z" transform="translate(369.901 265.388)" fill="#e8e8e8"/>
    <path id="Path_373034" data-name="Path 373034" d="M.641,1.282A.641.641,0,1,1,1.282.641.641.641,0,0,1,.641,1.282Z" transform="translate(381.003 282.889)" fill="#e8e8e8"/>
    <path id="Path_373035" data-name="Path 373035" d="M.658,1.316A.658.658,0,1,1,1.316.658.659.659,0,0,1,.658,1.316Z" transform="translate(394.245 298.826)" fill="#e8e8e8"/>
    <ellipse id="Ellipse_1895" data-name="Ellipse 1895" cx="0.675" cy="0.675" rx="0.675" ry="0.675" transform="translate(409.803 312.5)" fill="#e8e8e8"/>
    <ellipse id="Ellipse_1896" data-name="Ellipse 1896" cx="0.693" cy="0.693" rx="0.693" ry="0.693" transform="translate(427.933 322.434)" fill="#e8e8e8"/>
    <path id="Path_373036" data-name="Path 373036" d="M.71,1.42A.71.71,0,1,1,1.42.71.71.71,0,0,1,.71,1.42Z" transform="translate(448.08 327.128)" fill="#e8e8e8"/>
  </g>
  <g id="Group_156721" data-name="Group 156721" transform="translate(29.436 3.826)">
    <path id="Path_373037" data-name="Path 373037" d="M.494.989A.495.495,0,1,1,.989.5.494.494,0,0,1,.494.989Z" transform="translate(0)" fill="#e8e8e8"/>
    <ellipse id="Ellipse_1897" data-name="Ellipse 1897" cx="0.523" cy="0.523" rx="0.523" ry="0.523" transform="translate(12.175 16.765)" fill="#e8e8e8"/>
    <path id="Path_373038" data-name="Path 373038" d="M.552,1.1A.551.551,0,1,1,1.1.552.551.551,0,0,1,.552,1.1Z" transform="translate(25.438 32.681)" fill="#e8e8e8"/>
    <path id="Path_373039" data-name="Path 373039" d="M.579,1.159a.579.579,0,1,1,.58-.58A.58.58,0,0,1,.579,1.159Z" transform="translate(39.824 47.591)" fill="#e8e8e8"/>
    <path id="Path_373040" data-name="Path 373040" d="M.608,1.216A.608.608,0,1,1,1.216.608.607.607,0,0,1,.608,1.216Z" transform="translate(55.353 61.302)" fill="#e8e8e8"/>
    <ellipse id="Ellipse_1898" data-name="Ellipse 1898" cx="0.636" cy="0.636" rx="0.636" ry="0.636" transform="translate(72.03 73.59)" fill="#e8e8e8"/>
    <path id="Path_373041" data-name="Path 373041" d="M.665,1.329A.665.665,0,1,1,1.329.665.664.664,0,0,1,.665,1.329Z" transform="translate(90.074 83.727)" fill="#e8e8e8"/>
    <ellipse id="Ellipse_1899" data-name="Ellipse 1899" cx="0.693" cy="0.693" rx="0.693" ry="0.693" transform="translate(109.686 90.347)" fill="#e8e8e8"/>
    <path id="Path_373042" data-name="Path 373042" d="M.721,1.442A.721.721,0,1,1,1.442.721.721.721,0,0,1,.721,1.442Z" transform="translate(130.08 93.992)" fill="#e8e8e8"/>
    <ellipse id="Ellipse_1900" data-name="Ellipse 1900" cx="0.749" cy="0.749" rx="0.749" ry="0.749" transform="translate(150.742 95.574)" fill="#e8e8e8"/>
    <path id="Path_373043" data-name="Path 373043" d="M.778,1.555A.778.778,0,1,1,1.555.778.778.778,0,0,1,.778,1.555Z" transform="translate(171.467 95.984)" fill="#e8e8e8"/>
    <ellipse id="Ellipse_1901" data-name="Ellipse 1901" cx="0.806" cy="0.806" rx="0.806" ry="0.806" transform="translate(192.202 96.025)" fill="#e8e8e8"/>
    <path id="Path_373044" data-name="Path 373044" d="M.834,1.669A.834.834,0,1,1,1.669.835.835.835,0,0,1,.834,1.669Z" transform="translate(212.928 96.479)" fill="#e8e8e8"/>
    <path id="Path_373045" data-name="Path 373045" d="M.863,1.726A.863.863,0,1,1,1.726.863.863.863,0,0,1,.863,1.726Z" transform="translate(233.581 98.204)" fill="#e8e8e8"/>
    <path id="Path_373046" data-name="Path 373046" d="M.891,1.782a.891.891,0,1,1,.89-.89A.891.891,0,0,1,.891,1.782Z" transform="translate(253.902 102.209)" fill="#e8e8e8"/>
    <path id="Path_373047" data-name="Path 373047" d="M.919,1.838A.919.919,0,1,1,1.838.919.919.919,0,0,1,.919,1.838Z" transform="translate(273.244 109.561)" fill="#e8e8e8"/>
    <path id="Path_373048" data-name="Path 373048" d="M.947,1.9A.948.948,0,1,1,1.895.947.947.947,0,0,1,.947,1.9Z" transform="translate(290.528 120.907)" fill="#e8e8e8"/>
    <path id="Path_373049" data-name="Path 373049" d="M.975,1.952A.976.976,0,1,1,1.951.976.976.976,0,0,1,.975,1.952Z" transform="translate(304.906 135.786)" fill="#e8e8e8"/>
    <path id="Path_373050" data-name="Path 373050" d="M1,2.007a1,1,0,1,1,1-1A1,1,0,0,1,1,2.007Z" transform="translate(316.928 152.648)" fill="#e8e8e8"/>
    <path id="Path_373051" data-name="Path 373051" d="M1.033,2.064A1.032,1.032,0,1,1,2.065,1.032,1.032,1.032,0,0,1,1.033,2.064Z" transform="translate(327.066 170.714)" fill="#e8e8e8"/>
    <ellipse id="Ellipse_1902" data-name="Ellipse 1902" cx="1.061" cy="1.061" rx="1.061" ry="1.061" transform="translate(335.864 189.473)" fill="#e8e8e8"/>
    <ellipse id="Ellipse_1903" data-name="Ellipse 1903" cx="1.089" cy="1.089" rx="1.089" ry="1.089" transform="translate(343.921 208.565)" fill="#e8e8e8"/>
    <path id="Path_373052" data-name="Path 373052" d="M1.117,2.234A1.117,1.117,0,1,1,2.234,1.117,1.117,1.117,0,0,1,1.117,2.234Z" transform="translate(351.835 227.719)" fill="#e8e8e8"/>
    <path id="Path_373053" data-name="Path 373053" d="M1.146,2.292A1.146,1.146,0,1,1,2.291,1.146,1.146,1.146,0,0,1,1.146,2.292Z" transform="translate(360.204 246.677)" fill="#e8e8e8"/>
    <ellipse id="Ellipse_1904" data-name="Ellipse 1904" cx="1.174" cy="1.174" rx="1.174" ry="1.174" transform="translate(369.637 265.124)" fill="#e8e8e8"/>
    <ellipse id="Ellipse_1905" data-name="Ellipse 1905" cx="1.202" cy="1.202" rx="1.202" ry="1.202" transform="translate(380.727 282.614)" fill="#e8e8e8"/>
    <path id="Path_373054" data-name="Path 373054" d="M1.23,2.46A1.23,1.23,0,1,1,2.46,1.23,1.23,1.23,0,0,1,1.23,2.46Z" transform="translate(393.959 298.54)" fill="#e8e8e8"/>
    <path id="Path_373055" data-name="Path 373055" d="M1.259,2.517A1.259,1.259,0,1,1,2.517,1.259,1.259,1.259,0,0,1,1.259,2.517Z" transform="translate(409.506 312.203)" fill="#e8e8e8"/>
    <ellipse id="Ellipse_1906" data-name="Ellipse 1906" cx="1.287" cy="1.287" rx="1.287" ry="1.287" transform="translate(427.625 322.126)" fill="#e8e8e8"/>
    <path id="Path_373056" data-name="Path 373056" d="M0,1.212A1.316,1.316,0,0,1,.8,0V2.424A1.317,1.317,0,0,1,0,1.212Z" transform="translate(447.761 326.912)" fill="#e8e8e8"/>
  </g>
  <g id="Group_156722" data-name="Group 156722" transform="translate(50.61 7.94)">
    <path id="Path_373057" data-name="Path 373057" d="M.908,1.815A.908.908,0,1,1,1.815.908.907.907,0,0,1,.908,1.815Z" transform="translate(0)" fill="#e8e8e8"/>
    <path id="Path_373058" data-name="Path 373058" d="M.943,1.885A.942.942,0,1,1,1.885.942.943.943,0,0,1,.943,1.885Z" transform="translate(13.257 15.91)" fill="#e8e8e8"/>
    <path id="Path_373059" data-name="Path 373059" d="M.977,1.956A.978.978,0,1,1,1.955.978.978.978,0,0,1,.977,1.956Z" transform="translate(27.636 30.813)" fill="#e8e8e8"/>
    <path id="Path_373060" data-name="Path 373060" d="M1.012,2.025A1.012,1.012,0,1,1,2.025,1.012,1.012,1.012,0,0,1,1.012,2.025Z" transform="translate(43.159 44.517)" fill="#e8e8e8"/>
    <path id="Path_373061" data-name="Path 373061" d="M1.047,2.095A1.047,1.047,0,1,1,2.095,1.048,1.047,1.047,0,0,1,1.047,2.095Z" transform="translate(59.829 56.799)" fill="#e8e8e8"/>
    <path id="Path_373062" data-name="Path 373062" d="M1.082,2.164A1.082,1.082,0,1,1,2.163,1.082,1.082,1.082,0,0,1,1.082,2.164Z" transform="translate(77.867 66.93)" fill="#e8e8e8"/>
    <ellipse id="Ellipse_1907" data-name="Ellipse 1907" cx="1.117" cy="1.117" rx="1.117" ry="1.117" transform="translate(97.472 73.543)" fill="#e8e8e8"/>
    <path id="Path_373063" data-name="Path 373063" d="M1.152,2.3A1.151,1.151,0,1,1,2.3,1.151,1.151,1.151,0,0,1,1.152,2.3Z" transform="translate(117.859 77.181)" fill="#e8e8e8"/>
    <path id="Path_373064" data-name="Path 373064" d="M1.186,2.372A1.186,1.186,0,1,1,2.373,1.186,1.186,1.186,0,0,1,1.186,2.372Z" transform="translate(138.515 78.757)" fill="#e8e8e8"/>
    <path id="Path_373065" data-name="Path 373065" d="M1.221,2.442A1.221,1.221,0,1,1,2.442,1.221,1.221,1.221,0,0,1,1.221,2.442Z" transform="translate(159.234 79.16)" fill="#e8e8e8"/>
    <path id="Path_373066" data-name="Path 373066" d="M1.256,2.511A1.256,1.256,0,1,1,2.512,1.256,1.256,1.256,0,0,1,1.256,2.511Z" transform="translate(179.962 79.195)" fill="#e8e8e8"/>
    <path id="Path_373067" data-name="Path 373067" d="M1.291,2.581A1.29,1.29,0,1,1,2.582,1.29,1.291,1.291,0,0,1,1.291,2.581Z" transform="translate(200.682 79.643)" fill="#e8e8e8"/>
    <path id="Path_373068" data-name="Path 373068" d="M1.325,2.651A1.325,1.325,0,1,1,2.651,1.326,1.325,1.325,0,0,1,1.325,2.651Z" transform="translate(221.329 81.361)" fill="#e8e8e8"/>
    <path id="Path_373069" data-name="Path 373069" d="M1.361,2.72a1.36,1.36,0,1,1,1.36-1.36A1.36,1.36,0,0,1,1.361,2.72Z" transform="translate(241.642 85.36)" fill="#e8e8e8"/>
    <path id="Path_373070" data-name="Path 373070" d="M1.4,2.79A1.395,1.395,0,1,1,2.79,1.4,1.395,1.395,0,0,1,1.4,2.79Z" transform="translate(260.978 92.705)" fill="#e8e8e8"/>
    <path id="Path_373071" data-name="Path 373071" d="M1.43,2.86A1.43,1.43,0,1,1,2.859,1.43,1.43,1.43,0,0,1,1.43,2.86Z" transform="translate(278.255 104.044)" fill="#e8e8e8"/>
    <path id="Path_373072" data-name="Path 373072" d="M1.465,2.929A1.465,1.465,0,1,1,2.929,1.465,1.465,1.465,0,0,1,1.465,2.929Z" transform="translate(292.627 118.917)" fill="#e8e8e8"/>
    <ellipse id="Ellipse_1908" data-name="Ellipse 1908" cx="1.499" cy="1.499" rx="1.499" ry="1.499" transform="translate(304.643 135.772)" fill="#e8e8e8"/>
    <ellipse id="Ellipse_1909" data-name="Ellipse 1909" cx="1.534" cy="1.534" rx="1.534" ry="1.534" transform="translate(314.774 153.832)" fill="#e8e8e8"/>
    <ellipse id="Ellipse_1910" data-name="Ellipse 1910" cx="1.569" cy="1.569" rx="1.569" ry="1.569" transform="translate(323.566 172.585)" fill="#e8e8e8"/>
    <ellipse id="Ellipse_1911" data-name="Ellipse 1911" cx="1.604" cy="1.604" rx="1.604" ry="1.604" transform="translate(331.616 191.67)" fill="#e8e8e8"/>
    <path id="Path_373073" data-name="Path 373073" d="M1.638,3.277A1.638,1.638,0,1,1,3.277,1.638,1.638,1.638,0,0,1,1.638,3.277Z" transform="translate(339.524 210.817)" fill="#e8e8e8"/>
    <ellipse id="Ellipse_1912" data-name="Ellipse 1912" cx="1.673" cy="1.673" rx="1.673" ry="1.673" transform="translate(347.886 229.769)" fill="#e8e8e8"/>
    <path id="Path_373074" data-name="Path 373074" d="M1.708,3.417A1.708,1.708,0,1,1,3.416,1.708,1.708,1.708,0,0,1,1.708,3.417Z" transform="translate(357.312 248.209)" fill="#e8e8e8"/>
    <ellipse id="Ellipse_1913" data-name="Ellipse 1913" cx="1.743" cy="1.743" rx="1.743" ry="1.743" transform="translate(368.396 265.693)" fill="#e8e8e8"/>
    <path id="Path_373075" data-name="Path 373075" d="M1.778,3.555A1.778,1.778,0,1,1,3.555,1.777,1.778,1.778,0,0,1,1.778,3.555Z" transform="translate(381.621 281.613)" fill="#e8e8e8"/>
    <path id="Path_373076" data-name="Path 373076" d="M1.812,3.625A1.813,1.813,0,1,1,3.625,1.813,1.813,1.813,0,0,1,1.812,3.625Z" transform="translate(397.162 295.269)" fill="#e8e8e8"/>
    <path id="Path_373077" data-name="Path 373077" d="M1.847,3.7A1.848,1.848,0,1,1,3.694,1.848,1.847,1.847,0,0,1,1.847,3.7Z" transform="translate(415.275 305.185)" fill="#e8e8e8"/>
  </g>
  <g id="Group_156723" data-name="Group 156723" transform="translate(72.777 11.109)">
    <path id="Path_373078" data-name="Path 373078" d="M1.418,2.834A1.417,1.417,0,1,1,2.835,1.417,1.418,1.418,0,0,1,1.418,2.834Z" transform="translate(0)" fill="#e8e8e8"/>
    <path id="Path_373079" data-name="Path 373079" d="M1.454,2.908A1.454,1.454,0,1,1,2.908,1.454,1.454,1.454,0,0,1,1.454,2.908Z" transform="translate(14.376 14.901)" fill="#e8e8e8"/>
    <path id="Path_373080" data-name="Path 373080" d="M1.491,2.981a1.491,1.491,0,1,1,1.49-1.49A1.49,1.49,0,0,1,1.491,2.981Z" transform="translate(29.898 28.604)" fill="#e8e8e8"/>
    <path id="Path_373081" data-name="Path 373081" d="M1.527,3.054A1.527,1.527,0,1,1,3.055,1.527,1.527,1.527,0,0,1,1.527,3.054Z" transform="translate(46.567 40.884)" fill="#e8e8e8"/>
    <path id="Path_373082" data-name="Path 373082" d="M1.564,3.128A1.564,1.564,0,1,1,3.129,1.564,1.565,1.565,0,0,1,1.564,3.128Z" transform="translate(64.602 51.012)" fill="#e8e8e8"/>
    <path id="Path_373083" data-name="Path 373083" d="M1.6,3.2A1.6,1.6,0,1,1,3.2,1.6,1.6,1.6,0,0,1,1.6,3.2Z" transform="translate(84.206 57.624)" fill="#e8e8e8"/>
    <ellipse id="Ellipse_1914" data-name="Ellipse 1914" cx="1.638" cy="1.638" rx="1.638" ry="1.638" transform="translate(104.591 61.259)" fill="#e8e8e8"/>
    <path id="Path_373084" data-name="Path 373084" d="M1.675,3.349A1.675,1.675,0,1,1,3.349,1.675,1.675,1.675,0,0,1,1.675,3.349Z" transform="translate(125.244 62.833)" fill="#e8e8e8"/>
    <ellipse id="Ellipse_1915" data-name="Ellipse 1915" cx="1.711" cy="1.711" rx="1.711" ry="1.711" transform="translate(145.961 63.234)" fill="#e8e8e8"/>
    <path id="Path_373085" data-name="Path 373085" d="M1.748,3.5A1.748,1.748,0,1,1,3.5,1.748,1.749,1.749,0,0,1,1.748,3.5Z" transform="translate(166.688 63.268)" fill="#e8e8e8"/>
    <path id="Path_373086" data-name="Path 373086" d="M1.785,3.57A1.785,1.785,0,1,1,3.57,1.785,1.785,1.785,0,0,1,1.785,3.57Z" transform="translate(187.405 63.713)" fill="#e8e8e8"/>
    <path id="Path_373087" data-name="Path 373087" d="M1.821,3.643A1.822,1.822,0,1,1,3.643,1.822,1.821,1.821,0,0,1,1.821,3.643Z" transform="translate(208.05 65.43)" fill="#e8e8e8"/>
    <path id="Path_373088" data-name="Path 373088" d="M1.859,3.717A1.859,1.859,0,1,1,3.718,1.858,1.859,1.859,0,0,1,1.859,3.717Z" transform="translate(228.362 69.426)" fill="#e8e8e8"/>
    <path id="Path_373089" data-name="Path 373089" d="M1.9,3.791a1.9,1.9,0,1,1,1.9-1.9A1.9,1.9,0,0,1,1.9,3.791Z" transform="translate(247.695 76.769)" fill="#e8e8e8"/>
    <ellipse id="Ellipse_1916" data-name="Ellipse 1916" cx="1.932" cy="1.932" rx="1.932" ry="1.932" transform="translate(264.97 88.106)" fill="#e8e8e8"/>
    <path id="Path_373090" data-name="Path 373090" d="M1.969,3.938A1.969,1.969,0,1,1,3.938,1.969,1.969,1.969,0,0,1,1.969,3.938Z" transform="translate(279.34 102.977)" fill="#e8e8e8"/>
    <path id="Path_373091" data-name="Path 373091" d="M2.006,4.012A2.006,2.006,0,1,1,4.011,2.006,2.006,2.006,0,0,1,2.006,4.012Z" transform="translate(291.354 119.83)" fill="#e8e8e8"/>
    <ellipse id="Ellipse_1917" data-name="Ellipse 1917" cx="2.043" cy="2.043" rx="2.043" ry="2.043" transform="translate(301.483 137.887)" fill="#e8e8e8"/>
    <path id="Path_373092" data-name="Path 373092" d="M2.08,4.16A2.08,2.08,0,1,1,4.16,2.08,2.081,2.081,0,0,1,2.08,4.16Z" transform="translate(310.272 156.638)" fill="#e8e8e8"/>
    <ellipse id="Ellipse_1918" data-name="Ellipse 1918" cx="2.116" cy="2.116" rx="2.116" ry="2.116" transform="translate(318.321 175.722)" fill="#e8e8e8"/>
    <path id="Path_373093" data-name="Path 373093" d="M2.153,4.306A2.153,2.153,0,1,1,4.306,2.153,2.153,2.153,0,0,1,2.153,4.306Z" transform="translate(326.226 194.867)" fill="#e8e8e8"/>
    <path id="Path_373094" data-name="Path 373094" d="M2.19,4.38a2.19,2.19,0,1,1,2.19-2.19A2.19,2.19,0,0,1,2.19,4.38Z" transform="translate(334.587 213.817)" fill="#e8e8e8"/>
    <path id="Path_373095" data-name="Path 373095" d="M2.227,4.453A2.227,2.227,0,1,1,4.454,2.227,2.227,2.227,0,0,1,2.227,4.453Z" transform="translate(344.011 232.256)" fill="#e8e8e8"/>
    <path id="Path_373096" data-name="Path 373096" d="M2.264,4.527A2.264,2.264,0,1,1,4.527,2.264,2.263,2.263,0,0,1,2.264,4.527Z" transform="translate(355.093 249.737)" fill="#e8e8e8"/>
    <path id="Path_373097" data-name="Path 373097" d="M2.3,4.6A2.3,2.3,0,1,1,4.6,2.3,2.3,2.3,0,0,1,2.3,4.6Z" transform="translate(368.316 265.654)" fill="#e8e8e8"/>
    <path id="Path_373098" data-name="Path 373098" d="M2.337,4.674A2.337,2.337,0,1,1,4.674,2.336,2.337,2.337,0,0,1,2.337,4.674Z" transform="translate(383.855 279.309)" fill="#e8e8e8"/>
    <path id="Path_373099" data-name="Path 373099" d="M2.374,4.748A2.374,2.374,0,1,1,3.257.174v4.4A2.351,2.351,0,0,1,2.374,4.748Z" transform="translate(401.965 289.223)" fill="#e8e8e8"/>
  </g>
  <g id="Group_156724" data-name="Group 156724" transform="translate(81.605 0)">
    <path id="Path_373100" data-name="Path 373100" d="M1.974,2.234A1.975,1.975,0,0,1,0,.259,1.926,1.926,0,0,1,.026,0h3.9a1.926,1.926,0,0,1,.026.259A1.975,1.975,0,0,1,1.974,2.234Z" transform="translate(0)" fill="#e8e8e8"/>
    <path id="Path_373101" data-name="Path 373101" d="M2.008,4.017A2.009,2.009,0,1,1,4.017,2.008,2.009,2.009,0,0,1,2.008,4.017Z" transform="translate(14.379 13.189)" fill="#e8e8e8"/>
    <path id="Path_373102" data-name="Path 373102" d="M2.043,4.086A2.043,2.043,0,1,1,4.086,2.043,2.042,2.042,0,0,1,2.043,4.086Z" transform="translate(29.903 26.894)" fill="#e8e8e8"/>
    <path id="Path_373103" data-name="Path 373103" d="M2.077,4.154A2.077,2.077,0,1,1,4.154,2.077,2.077,2.077,0,0,1,2.077,4.154Z" transform="translate(46.574 39.176)" fill="#e8e8e8"/>
    <path id="Path_373104" data-name="Path 373104" d="M2.112,4.223A2.112,2.112,0,1,1,4.223,2.111,2.112,2.112,0,0,1,2.112,4.223Z" transform="translate(64.611 49.307)" fill="#e8e8e8"/>
    <path id="Path_373105" data-name="Path 373105" d="M2.146,4.293A2.146,2.146,0,1,1,4.292,2.147,2.146,2.146,0,0,1,2.146,4.293Z" transform="translate(84.217 55.92)" fill="#e8e8e8"/>
    <path id="Path_373106" data-name="Path 373106" d="M2.18,4.361a2.18,2.18,0,1,1,2.18-2.18A2.18,2.18,0,0,1,2.18,4.361Z" transform="translate(104.605 59.558)" fill="#e8e8e8"/>
    <path id="Path_373107" data-name="Path 373107" d="M2.214,4.43A2.215,2.215,0,1,1,4.429,2.215,2.215,2.215,0,0,1,2.214,4.43Z" transform="translate(125.261 61.134)" fill="#e8e8e8"/>
    <path id="Path_373108" data-name="Path 373108" d="M2.249,4.5A2.249,2.249,0,1,1,4.5,2.249,2.249,2.249,0,0,1,2.249,4.5Z" transform="translate(145.981 61.539)" fill="#e8e8e8"/>
    <ellipse id="Ellipse_1919" data-name="Ellipse 1919" cx="2.283" cy="2.283" rx="2.283" ry="2.283" transform="translate(166.709 61.575)" fill="#e8e8e8"/>
    <path id="Path_373109" data-name="Path 373109" d="M2.318,4.635A2.318,2.318,0,1,1,4.636,2.317,2.318,2.318,0,0,1,2.318,4.635Z" transform="translate(187.429 62.023)" fill="#e8e8e8"/>
    <path id="Path_373110" data-name="Path 373110" d="M2.352,4.7A2.352,2.352,0,1,1,4.7,2.353,2.352,2.352,0,0,1,2.352,4.7Z" transform="translate(208.077 63.741)" fill="#e8e8e8"/>
    <ellipse id="Ellipse_1920" data-name="Ellipse 1920" cx="2.386" cy="2.386" rx="2.386" ry="2.386" transform="translate(228.391 67.74)" fill="#e8e8e8"/>
    <path id="Path_373111" data-name="Path 373111" d="M2.421,4.842a2.421,2.421,0,1,1,2.42-2.421A2.421,2.421,0,0,1,2.421,4.842Z" transform="translate(247.726 75.086)" fill="#e8e8e8"/>
    <ellipse id="Ellipse_1921" data-name="Ellipse 1921" cx="2.455" cy="2.455" rx="2.455" ry="2.455" transform="translate(265.004 86.426)" fill="#e8e8e8"/>
    <path id="Path_373112" data-name="Path 373112" d="M2.489,4.979A2.489,2.489,0,1,1,4.979,2.489,2.489,2.489,0,0,1,2.489,4.979Z" transform="translate(279.376 101.299)" fill="#e8e8e8"/>
    <path id="Path_373113" data-name="Path 373113" d="M2.524,5.047A2.523,2.523,0,1,1,5.048,2.524,2.524,2.524,0,0,1,2.524,5.047Z" transform="translate(291.393 118.155)" fill="#e8e8e8"/>
    <path id="Path_373114" data-name="Path 373114" d="M2.559,5.116A2.558,2.558,0,1,1,5.116,2.558,2.558,2.558,0,0,1,2.559,5.116Z" transform="translate(301.524 136.214)" fill="#e8e8e8"/>
    <path id="Path_373115" data-name="Path 373115" d="M2.592,5.184A2.592,2.592,0,1,1,5.185,2.592,2.592,2.592,0,0,1,2.592,5.184Z" transform="translate(310.317 154.968)" fill="#e8e8e8"/>
    <path id="Path_373116" data-name="Path 373116" d="M2.626,5.254A2.627,2.627,0,1,1,5.253,2.627,2.626,2.626,0,0,1,2.626,5.254Z" transform="translate(318.368 174.054)" fill="#e8e8e8"/>
    <path id="Path_373117" data-name="Path 373117" d="M2.66,5.321a2.661,2.661,0,1,1,2.661-2.66A2.66,2.66,0,0,1,2.66,5.321Z" transform="translate(326.276 193.202)" fill="#e8e8e8"/>
    <path id="Path_373118" data-name="Path 373118" d="M2.7,5.391a2.7,2.7,0,1,1,2.7-2.7A2.7,2.7,0,0,1,2.7,5.391Z" transform="translate(334.639 212.154)" fill="#e8e8e8"/>
    <path id="Path_373119" data-name="Path 373119" d="M2.729,5.46a2.73,2.73,0,1,1,2.73-2.73A2.729,2.729,0,0,1,2.729,5.46Z" transform="translate(344.065 230.594)" fill="#e8e8e8"/>
    <path id="Path_373120" data-name="Path 373120" d="M2.765,5.528A2.764,2.764,0,1,1,5.528,2.764,2.765,2.765,0,0,1,2.765,5.528Z" transform="translate(355.15 248.079)" fill="#e8e8e8"/>
    <ellipse id="Ellipse_1922" data-name="Ellipse 1922" cx="2.798" cy="2.798" rx="2.798" ry="2.798" transform="translate(368.375 263.998)" fill="#e8e8e8"/>
    <ellipse id="Ellipse_1923" data-name="Ellipse 1923" cx="2.833" cy="2.833" rx="2.833" ry="2.833" transform="translate(383.916 277.655)" fill="#e8e8e8"/>
  </g>
  <g id="Group_156725" data-name="Group 156725" transform="translate(104.735 0.289)">
    <ellipse id="Ellipse_1924" data-name="Ellipse 1924" cx="2.642" cy="2.642" rx="2.642" ry="2.642" transform="translate(0 0)" fill="#e8e8e8"/>
    <path id="Path_373121" data-name="Path 373121" d="M2.67,5.339a2.669,2.669,0,1,1,2.67-2.67A2.67,2.67,0,0,1,2.67,5.339Z" transform="translate(15.53 13.712)" fill="#e8e8e8"/>
    <path id="Path_373122" data-name="Path 373122" d="M2.7,5.394a2.7,2.7,0,1,1,2.7-2.7A2.7,2.7,0,0,1,2.7,5.394Z" transform="translate(32.209 26.001)" fill="#e8e8e8"/>
    <ellipse id="Ellipse_1925" data-name="Ellipse 1925" cx="2.724" cy="2.724" rx="2.724" ry="2.724" transform="translate(50.253 36.139)" fill="#e8e8e8"/>
    <path id="Path_373123" data-name="Path 373123" d="M2.751,5.5A2.752,2.752,0,1,1,5.5,2.752,2.752,2.752,0,0,1,2.751,5.5Z" transform="translate(69.866 42.759)" fill="#e8e8e8"/>
    <path id="Path_373124" data-name="Path 373124" d="M2.778,5.558A2.779,2.779,0,1,1,5.558,2.778,2.778,2.778,0,0,1,2.778,5.558Z" transform="translate(90.262 46.405)" fill="#e8e8e8"/>
    <path id="Path_373125" data-name="Path 373125" d="M2.806,5.613A2.806,2.806,0,1,1,5.612,2.806,2.806,2.806,0,0,1,2.806,5.613Z" transform="translate(110.925 47.988)" fill="#e8e8e8"/>
    <ellipse id="Ellipse_1926" data-name="Ellipse 1926" cx="2.834" cy="2.834" rx="2.834" ry="2.834" transform="translate(131.65 48.399)" fill="#e8e8e8"/>
    <path id="Path_373126" data-name="Path 373126" d="M2.861,5.723A2.861,2.861,0,1,1,5.722,2.862,2.861,2.861,0,0,1,2.861,5.723Z" transform="translate(152.387 48.441)" fill="#e8e8e8"/>
    <path id="Path_373127" data-name="Path 373127" d="M2.888,5.777A2.888,2.888,0,1,1,5.777,2.888,2.888,2.888,0,0,1,2.888,5.777Z" transform="translate(173.114 48.897)" fill="#e8e8e8"/>
    <path id="Path_373128" data-name="Path 373128" d="M2.915,5.832A2.916,2.916,0,1,1,5.831,2.916,2.915,2.915,0,0,1,2.915,5.832Z" transform="translate(193.768 50.622)" fill="#e8e8e8"/>
    <path id="Path_373129" data-name="Path 373129" d="M2.943,5.886A2.943,2.943,0,1,1,5.886,2.943,2.943,2.943,0,0,1,2.943,5.886Z" transform="translate(214.089 54.628)" fill="#e8e8e8"/>
    <path id="Path_373130" data-name="Path 373130" d="M2.971,5.942A2.971,2.971,0,1,1,5.942,2.97,2.971,2.971,0,0,1,2.971,5.942Z" transform="translate(233.431 61.981)" fill="#e8e8e8"/>
    <path id="Path_373131" data-name="Path 373131" d="M3,6A3,3,0,1,1,6,3,3,3,0,0,1,3,6Z" transform="translate(250.716 73.327)" fill="#e8e8e8"/>
    <path id="Path_373132" data-name="Path 373132" d="M3.025,6.05A3.025,3.025,0,1,1,6.05,3.025,3.026,3.026,0,0,1,3.025,6.05Z" transform="translate(265.095 88.208)" fill="#e8e8e8"/>
    <path id="Path_373133" data-name="Path 373133" d="M3.053,6.105A3.053,3.053,0,1,1,6.105,3.052,3.053,3.053,0,0,1,3.053,6.105Z" transform="translate(277.118 105.07)" fill="#e8e8e8"/>
    <path id="Path_373134" data-name="Path 373134" d="M3.081,6.16a3.08,3.08,0,1,1,3.08-3.08A3.081,3.081,0,0,1,3.081,6.16Z" transform="translate(287.257 123.137)" fill="#e8e8e8"/>
    <path id="Path_373135" data-name="Path 373135" d="M3.107,6.215A3.107,3.107,0,1,1,6.214,3.107,3.107,3.107,0,0,1,3.107,6.215Z" transform="translate(296.057 141.898)" fill="#e8e8e8"/>
    <path id="Path_373136" data-name="Path 373136" d="M3.134,6.269A3.135,3.135,0,1,1,6.27,3.134,3.135,3.135,0,0,1,3.134,6.269Z" transform="translate(304.114 160.991)" fill="#e8e8e8"/>
    <ellipse id="Ellipse_1927" data-name="Ellipse 1927" cx="3.162" cy="3.162" rx="3.162" ry="3.162" transform="translate(312.029 180.145)" fill="#e8e8e8"/>
    <path id="Path_373137" data-name="Path 373137" d="M3.189,6.38a3.19,3.19,0,1,1,3.189-3.19A3.19,3.19,0,0,1,3.189,6.38Z" transform="translate(320.399 199.104)" fill="#e8e8e8"/>
    <path id="Path_373138" data-name="Path 373138" d="M3.217,6.434A3.217,3.217,0,1,1,6.434,3.217,3.217,3.217,0,0,1,3.217,6.434Z" transform="translate(329.833 217.552)" fill="#e8e8e8"/>
    <path id="Path_373139" data-name="Path 373139" d="M3.245,6.488A3.244,3.244,0,1,1,6.489,3.245,3.244,3.244,0,0,1,3.245,6.488Z" transform="translate(340.924 235.043)" fill="#e8e8e8"/>
    <ellipse id="Ellipse_1928" data-name="Ellipse 1928" cx="3.272" cy="3.272" rx="3.272" ry="3.272" transform="translate(354.156 250.97)" fill="#e8e8e8"/>
    <path id="Path_373140" data-name="Path 373140" d="M3.3,6.6A3.3,3.3,0,0,1,3.3,0c.09,0,.174.02.261.027V6.573C3.473,6.579,3.389,6.6,3.3,6.6Z" transform="translate(369.705 264.634)" fill="#e8e8e8"/>
  </g>
  <g id="Group_156726" data-name="Group 156726" transform="translate(128.95 1.034)">
    <path id="Path_373141" data-name="Path 373141" d="M3.37,6.74A3.37,3.37,0,1,1,6.74,3.37,3.37,3.37,0,0,1,3.37,6.74Z" transform="translate(0)" fill="#e8e8e8"/>
    <path id="Path_373142" data-name="Path 373142" d="M3.385,6.771A3.385,3.385,0,1,1,6.772,3.385,3.385,3.385,0,0,1,3.385,6.771Z" transform="translate(16.689 12.301)" fill="#e8e8e8"/>
    <path id="Path_373143" data-name="Path 373143" d="M3.4,6.8A3.4,3.4,0,1,1,6.8,3.4,3.4,3.4,0,0,1,3.4,6.8Z" transform="translate(34.745 22.45)" fill="#e8e8e8"/>
    <path id="Path_373144" data-name="Path 373144" d="M3.418,6.836A3.418,3.418,0,1,1,6.835,3.418,3.418,3.418,0,0,1,3.418,6.836Z" transform="translate(54.37 29.081)" fill="#e8e8e8"/>
    <path id="Path_373145" data-name="Path 373145" d="M3.433,6.866A3.433,3.433,0,1,1,6.867,3.433,3.433,3.433,0,0,1,3.433,6.866Z" transform="translate(74.776 32.739)" fill="#e8e8e8"/>
    <path id="Path_373146" data-name="Path 373146" d="M3.449,6.9A3.45,3.45,0,1,1,6.9,3.45,3.449,3.449,0,0,1,3.449,6.9Z" transform="translate(95.451 34.333)" fill="#e8e8e8"/>
    <path id="Path_373147" data-name="Path 373147" d="M3.465,6.931A3.465,3.465,0,1,1,6.931,3.465,3.465,3.465,0,0,1,3.465,6.931Z" transform="translate(116.188 34.755)" fill="#e8e8e8"/>
    <path id="Path_373148" data-name="Path 373148" d="M3.481,6.962A3.481,3.481,0,1,1,6.962,3.481,3.481,3.481,0,0,1,3.481,6.962Z" transform="translate(136.936 34.81)" fill="#e8e8e8"/>
    <ellipse id="Ellipse_1929" data-name="Ellipse 1929" cx="3.497" cy="3.497" rx="3.497" ry="3.497" transform="translate(157.674 35.276)" fill="#e8e8e8"/>
    <path id="Path_373149" data-name="Path 373149" d="M3.513,7.026A3.513,3.513,0,1,1,7.027,3.513,3.513,3.513,0,0,1,3.513,7.026Z" transform="translate(178.339 37.013)" fill="#e8e8e8"/>
    <path id="Path_373150" data-name="Path 373150" d="M3.53,7.058a3.529,3.529,0,1,1,3.529-3.53A3.53,3.53,0,0,1,3.53,7.058Z" transform="translate(198.672 41.03)" fill="#e8e8e8"/>
    <ellipse id="Ellipse_1930" data-name="Ellipse 1930" cx="3.545" cy="3.545" rx="3.545" ry="3.545" transform="translate(218.026 48.394)" fill="#e8e8e8"/>
    <path id="Path_373151" data-name="Path 373151" d="M3.561,7.122A3.561,3.561,0,1,1,7.122,3.561,3.56,3.56,0,0,1,3.561,7.122Z" transform="translate(235.323 59.753)" fill="#e8e8e8"/>
    <path id="Path_373152" data-name="Path 373152" d="M3.577,7.154A3.577,3.577,0,1,1,7.154,3.577,3.577,3.577,0,0,1,3.577,7.154Z" transform="translate(249.713 74.644)" fill="#e8e8e8"/>
    <path id="Path_373153" data-name="Path 373153" d="M3.593,7.186A3.593,3.593,0,1,1,7.186,3.593,3.593,3.593,0,0,1,3.593,7.186Z" transform="translate(261.748 91.518)" fill="#e8e8e8"/>
    <path id="Path_373154" data-name="Path 373154" d="M3.609,7.218a3.609,3.609,0,1,1,3.609-3.61A3.609,3.609,0,0,1,3.609,7.218Z" transform="translate(271.898 109.596)" fill="#e8e8e8"/>
    <path id="Path_373155" data-name="Path 373155" d="M3.624,7.25A3.625,3.625,0,1,1,7.249,3.625,3.624,3.624,0,0,1,3.624,7.25Z" transform="translate(280.709 128.368)" fill="#e8e8e8"/>
    <path id="Path_373156" data-name="Path 373156" d="M3.64,7.281a3.64,3.64,0,1,1,3.641-3.64A3.64,3.64,0,0,1,3.64,7.281Z" transform="translate(288.778 147.473)" fill="#e8e8e8"/>
    <path id="Path_373157" data-name="Path 373157" d="M3.657,7.314A3.657,3.657,0,1,1,7.313,3.657,3.657,3.657,0,0,1,3.657,7.314Z" transform="translate(296.704 166.638)" fill="#e8e8e8"/>
    <ellipse id="Ellipse_1931" data-name="Ellipse 1931" cx="3.673" cy="3.673" rx="3.673" ry="3.673" transform="translate(310.746 184.483) rotate(67.5)" fill="#e8e8e8"/>
    <path id="Path_373158" data-name="Path 373158" d="M3.688,7.376A3.688,3.688,0,1,1,7.376,3.689,3.688,3.688,0,0,1,3.688,7.376Z" transform="translate(314.531 204.069)" fill="#e8e8e8"/>
    <path id="Path_373159" data-name="Path 373159" d="M3.7,7.409a3.7,3.7,0,1,1,3.7-3.7A3.7,3.7,0,0,1,3.7,7.409Z" transform="translate(325.634 221.571)" fill="#e8e8e8"/>
    <ellipse id="Ellipse_1932" data-name="Ellipse 1932" cx="3.72" cy="3.72" rx="3.72" ry="3.72" transform="translate(338.877 237.509)" fill="#e8e8e8"/>
  </g>
  <g id="Group_156727" data-name="Group 156727" transform="translate(154.266 0.309)">
    <ellipse id="Ellipse_1933" data-name="Ellipse 1933" cx="4.144" cy="4.144" rx="4.144" ry="4.144" transform="translate(0 0)" fill="#e8e8e8"/>
    <ellipse id="Ellipse_1934" data-name="Ellipse 1934" cx="4.144" cy="4.144" rx="4.144" ry="4.144" transform="translate(18.072 10.165)" fill="#e8e8e8"/>
    <ellipse id="Ellipse_1935" data-name="Ellipse 1935" cx="4.144" cy="4.144" rx="4.144" ry="4.144" transform="translate(37.712 16.813)" fill="#e8e8e8"/>
    <ellipse id="Ellipse_1936" data-name="Ellipse 1936" cx="4.144" cy="4.144" rx="4.144" ry="4.144" transform="translate(58.135 20.486)" fill="#e8e8e8"/>
    <ellipse id="Ellipse_1937" data-name="Ellipse 1937" cx="4.144" cy="4.144" rx="4.144" ry="4.144" transform="translate(78.825 22.096)" fill="#e8e8e8"/>
    <ellipse id="Ellipse_1938" data-name="Ellipse 1938" cx="4.144" cy="4.144" rx="4.144" ry="4.144" transform="translate(99.579 22.535)" fill="#e8e8e8"/>
    <ellipse id="Ellipse_1939" data-name="Ellipse 1939" cx="4.144" cy="4.144" rx="4.144" ry="4.144" transform="translate(120.342 22.605)" fill="#e8e8e8"/>
    <ellipse id="Ellipse_1940" data-name="Ellipse 1940" cx="4.144" cy="4.144" rx="4.144" ry="4.144" transform="translate(141.096 23.087)" fill="#e8e8e8"/>
    <ellipse id="Ellipse_1941" data-name="Ellipse 1941" cx="4.144" cy="4.144" rx="4.144" ry="4.144" transform="translate(161.778 24.84)" fill="#e8e8e8"/>
    <ellipse id="Ellipse_1942" data-name="Ellipse 1942" cx="4.144" cy="4.144" rx="4.144" ry="4.144" transform="translate(182.126 28.873)" fill="#e8e8e8"/>
    <ellipse id="Ellipse_1943" data-name="Ellipse 1943" cx="4.144" cy="4.144" rx="4.144" ry="4.144" transform="translate(201.496 36.253)" fill="#e8e8e8"/>
    <ellipse id="Ellipse_1944" data-name="Ellipse 1944" cx="4.144" cy="4.144" rx="4.144" ry="4.144" transform="translate(218.808 47.627)" fill="#e8e8e8"/>
    <ellipse id="Ellipse_1945" data-name="Ellipse 1945" cx="4.144" cy="4.144" rx="4.144" ry="4.144" transform="translate(233.215 62.535)" fill="#e8e8e8"/>
    <ellipse id="Ellipse_1946" data-name="Ellipse 1946" cx="4.144" cy="4.144" rx="4.144" ry="4.144" transform="translate(245.265 79.425)" fill="#e8e8e8"/>
    <ellipse id="Ellipse_1947" data-name="Ellipse 1947" cx="4.144" cy="4.144" rx="4.144" ry="4.144" transform="translate(255.432 97.519)" fill="#e8e8e8"/>
    <ellipse id="Ellipse_1948" data-name="Ellipse 1948" cx="4.144" cy="4.144" rx="4.144" ry="4.144" transform="translate(264.258 116.307)" fill="#e8e8e8"/>
    <ellipse id="Ellipse_1949" data-name="Ellipse 1949" cx="4.144" cy="4.144" rx="4.144" ry="4.144" transform="translate(272.343 135.427)" fill="#e8e8e8"/>
    <ellipse id="Ellipse_1950" data-name="Ellipse 1950" cx="4.144" cy="4.144" rx="4.144" ry="4.144" transform="translate(280.285 154.609)" fill="#e8e8e8"/>
    <ellipse id="Ellipse_1951" data-name="Ellipse 1951" cx="4.144" cy="4.144" rx="4.144" ry="4.144" transform="translate(288.683 173.596)" fill="#e8e8e8"/>
    <ellipse id="Ellipse_1952" data-name="Ellipse 1952" cx="4.144" cy="4.144" rx="4.144" ry="4.144" transform="translate(298.144 192.071)" fill="#e8e8e8"/>
    <ellipse id="Ellipse_1953" data-name="Ellipse 1953" cx="4.144" cy="4.144" rx="4.144" ry="4.144" transform="translate(309.263 209.589)" fill="#e8e8e8"/>
    <path id="Path_373160" data-name="Path 373160" d="M0,2.928A4.131,4.131,0,0,1,1.212,0V5.857A4.129,4.129,0,0,1,0,2.928Z" transform="translate(322.523 226.759)" fill="#e8e8e8"/>
  </g>
  <g id="Group_156728" data-name="Group 156728" transform="translate(180.914 0)">
    <path id="Path_373161" data-name="Path 373161" d="M4.952,7.3A4.952,4.952,0,0,1,.594,0H9.311A4.952,4.952,0,0,1,4.952,7.3Z" transform="translate(0)" fill="#e8e8e8"/>
    <path id="Path_373162" data-name="Path 373162" d="M4.932,9.863A4.932,4.932,0,1,1,9.863,4.932,4.932,4.932,0,0,1,4.932,9.863Z" transform="translate(19.661 4.068)" fill="#e8e8e8"/>
    <ellipse id="Ellipse_1954" data-name="Ellipse 1954" cx="4.911" cy="4.911" rx="4.911" ry="4.911" transform="translate(49.647 7.497) rotate(86.83)" fill="#e8e8e8"/>
    <ellipse id="Ellipse_1955" data-name="Ellipse 1955" cx="4.891" cy="4.891" rx="4.891" ry="4.891" transform="translate(60.814 9.392)" fill="#e8e8e8"/>
    <ellipse id="Ellipse_1956" data-name="Ellipse 1956" cx="4.87" cy="4.87" rx="4.87" ry="4.87" transform="translate(81.588 9.851)" fill="#e8e8e8"/>
    <path id="Path_373163" data-name="Path 373163" d="M4.85,9.7A4.85,4.85,0,1,1,9.7,4.85,4.85,4.85,0,0,1,4.85,9.7Z" transform="translate(102.372 9.942)" fill="#e8e8e8"/>
    <path id="Path_373164" data-name="Path 373164" d="M4.83,9.659A4.829,4.829,0,1,1,9.659,4.83,4.829,4.829,0,0,1,4.83,9.659Z" transform="translate(123.147 10.444)" fill="#e8e8e8"/>
    <ellipse id="Ellipse_1957" data-name="Ellipse 1957" cx="4.809" cy="4.809" rx="4.809" ry="4.809" transform="translate(152.97 11.768) rotate(84.345)" fill="#e8e8e8"/>
    <ellipse id="Ellipse_1958" data-name="Ellipse 1958" cx="4.789" cy="4.789" rx="4.789" ry="4.789" transform="translate(164.218 16.271)" fill="#e8e8e8"/>
    <ellipse id="Ellipse_1959" data-name="Ellipse 1959" cx="4.768" cy="4.768" rx="4.768" ry="4.768" transform="translate(183.608 23.672)" fill="#e8e8e8"/>
    <path id="Path_373165" data-name="Path 373165" d="M4.748,9.5A4.748,4.748,0,1,1,9.5,4.748,4.748,4.748,0,0,1,4.748,9.5Z" transform="translate(200.941 35.067)" fill="#e8e8e8"/>
    <ellipse id="Ellipse_1960" data-name="Ellipse 1960" cx="4.728" cy="4.728" rx="4.728" ry="4.728" transform="translate(224.554 49.74) rotate(86.83)" fill="#e8e8e8"/>
    <ellipse id="Ellipse_1961" data-name="Ellipse 1961" cx="4.707" cy="4.707" rx="4.707" ry="4.707" transform="translate(227.439 66.905)" fill="#e8e8e8"/>
    <ellipse id="Ellipse_1962" data-name="Ellipse 1962" cx="4.687" cy="4.687" rx="4.687" ry="4.687" transform="translate(237.625 85.019)" fill="#e8e8e8"/>
    <ellipse id="Ellipse_1963" data-name="Ellipse 1963" cx="4.666" cy="4.666" rx="4.666" ry="4.666" transform="translate(246.472 103.828)" fill="#e8e8e8"/>
    <path id="Path_373166" data-name="Path 373166" d="M4.646,9.292A4.646,4.646,0,1,1,9.292,4.646,4.646,4.646,0,0,1,4.646,9.292Z" transform="translate(254.577 122.969)" fill="#e8e8e8"/>
    <path id="Path_373167" data-name="Path 373167" d="M4.625,9.25A4.625,4.625,0,1,1,9.251,4.626,4.625,4.625,0,0,1,4.625,9.25Z" transform="translate(262.54 142.17)" fill="#e8e8e8"/>
    <ellipse id="Ellipse_1964" data-name="Ellipse 1964" cx="4.605" cy="4.605" rx="4.605" ry="4.605" transform="translate(271.755 160.5) rotate(9.217)" fill="#e8e8e8"/>
    <path id="Path_373168" data-name="Path 373168" d="M4.584,9.169A4.584,4.584,0,1,1,9.169,4.584,4.585,4.585,0,0,1,4.584,9.169Z" transform="translate(280.44 179.674)" fill="#e8e8e8"/>
    <path id="Path_373169" data-name="Path 373169" d="M4.564,9.128A4.564,4.564,0,1,1,5.507.1V9.03A4.556,4.556,0,0,1,4.564,9.128Z" transform="translate(291.579 197.212)" fill="#e8e8e8"/>
  </g>
  <g id="Group_156729" data-name="Group 156729" transform="translate(210.126 0)">
    <path id="Path_373170" data-name="Path 373170" d="M4.765,2.512A5.771,5.771,0,0,1,0,0H9.531A5.772,5.772,0,0,1,4.765,2.512Z" transform="translate(0 0)" fill="#e8e8e8"/>
    <path id="Path_373171" data-name="Path 373171" d="M5.734,6.14A5.734,5.734,0,0,1,0,.406C0,.269.011.135.021,0H11.448c.009.135.021.269.021.406A5.734,5.734,0,0,1,5.734,6.14Z" transform="translate(19.454 0)" fill="#e8e8e8"/>
    <path id="Path_373172" data-name="Path 373172" d="M5.689,7.705A5.677,5.677,0,0,1,.375,0H11A5.677,5.677,0,0,1,5.689,7.705Z" transform="translate(40.189 0)" fill="#e8e8e8"/>
    <path id="Path_373173" data-name="Path 373173" d="M5.643,8.1A5.634,5.634,0,0,1,.568,0H10.719A5.633,5.633,0,0,1,5.643,8.1Z" transform="translate(60.988 0)" fill="#e8e8e8"/>
    <path id="Path_373174" data-name="Path 373174" d="M5.6,8.123A5.591,5.591,0,0,1,.606,0H10.59A5.591,5.591,0,0,1,5.6,8.123Z" transform="translate(81.797 0)" fill="#e8e8e8"/>
    <path id="Path_373175" data-name="Path 373175" d="M5.553,8.56A5.548,5.548,0,0,1,.889,0h9.328A5.548,5.548,0,0,1,5.553,8.56Z" transform="translate(102.597 0)" fill="#e8e8e8"/>
    <path id="Path_373176" data-name="Path 373176" d="M11.015,4.76A5.508,5.508,0,1,1,2.747,0H8.268A5.5,5.5,0,0,1,11.015,4.76Z" transform="translate(123.323 0)" fill="#e8e8e8"/>
    <path id="Path_373177" data-name="Path 373177" d="M5.462,10.924a5.462,5.462,0,1,1,5.462-5.462A5.462,5.462,0,0,1,5.462,10.924Z" transform="translate(143.718 3.331)" fill="#e8e8e8"/>
    <ellipse id="Ellipse_1965" data-name="Ellipse 1965" cx="5.417" cy="5.417" rx="5.417" ry="5.417" transform="translate(163.133 10.757)" fill="#e8e8e8"/>
    <ellipse id="Ellipse_1966" data-name="Ellipse 1966" cx="5.372" cy="5.372" rx="5.372" ry="5.372" transform="translate(180.49 22.176)" fill="#e8e8e8"/>
    <path id="Path_373178" data-name="Path 373178" d="M5.326,10.653a5.327,5.327,0,1,1,5.326-5.326A5.327,5.327,0,0,1,5.326,10.653Z" transform="translate(194.942 37.129)" fill="#e8e8e8"/>
    <ellipse id="Ellipse_1967" data-name="Ellipse 1967" cx="5.281" cy="5.281" rx="5.281" ry="5.281" transform="translate(207.038 54.064)" fill="#e8e8e8"/>
    <ellipse id="Ellipse_1968" data-name="Ellipse 1968" cx="5.236" cy="5.236" rx="5.236" ry="5.236" transform="translate(225.318 70.599) rotate(67.5)" fill="#e8e8e8"/>
    <ellipse id="Ellipse_1969" data-name="Ellipse 1969" cx="5.19" cy="5.19" rx="5.19" ry="5.19" transform="translate(236.207 90.758) rotate(86.83)" fill="#e8e8e8"/>
    <path id="Path_373179" data-name="Path 373179" d="M5.144,10.289a5.145,5.145,0,1,1,5.145-5.145A5.144,5.144,0,0,1,5.144,10.289Z" transform="translate(234.252 110.203)" fill="#e8e8e8"/>
    <path id="Path_373180" data-name="Path 373180" d="M5.1,10.2a5.1,5.1,0,1,1,5.1-5.1A5.1,5.1,0,0,1,5.1,10.2Z" transform="translate(242.239 129.43)" fill="#e8e8e8"/>
    <ellipse id="Ellipse_1970" data-name="Ellipse 1970" cx="5.054" cy="5.054" rx="5.054" ry="5.054" transform="translate(250.682 148.462)" fill="#e8e8e8"/>
    <path id="Path_373181" data-name="Path 373181" d="M5.009,10.018A5.009,5.009,0,1,1,7.685.78V9.237A4.975,4.975,0,0,1,5.009,10.018Z" transform="translate(260.189 166.983)" fill="#e8e8e8"/>
  </g>
  <g id="Group_156730" data-name="Group 156730" transform="translate(363.598 0)">
    <path id="Path_373182" data-name="Path 373182" d="M5.092,2.692A6.158,6.158,0,0,1,0,0H10.185A6.158,6.158,0,0,1,5.092,2.692Z" transform="translate(0 0)" fill="#e8e8e8"/>
    <path id="Path_373183" data-name="Path 373183" d="M6.09,10A6.088,6.088,0,0,1,1.421,0H10.76A6.088,6.088,0,0,1,6.09,10Z" transform="translate(18.372)" fill="#e8e8e8"/>
    <ellipse id="Ellipse_1971" data-name="Ellipse 1971" cx="6.015" cy="6.015" rx="6.015" ry="6.015" transform="translate(45.03 7.422) rotate(67.5)" fill="#e8e8e8"/>
    <path id="Path_373184" data-name="Path 373184" d="M5.941,11.881a5.941,5.941,0,1,1,5.942-5.941A5.941,5.941,0,0,1,5.941,11.881Z" transform="translate(50.24 24.248)" fill="#e8e8e8"/>
    <path id="Path_373185" data-name="Path 373185" d="M5.866,11.732a5.866,5.866,0,1,1,5.866-5.866A5.866,5.866,0,0,1,5.866,11.732Z" transform="translate(62.366 41.213)" fill="#e8e8e8"/>
    <ellipse id="Ellipse_1972" data-name="Ellipse 1972" cx="5.791" cy="5.791" rx="5.791" ry="5.791" transform="translate(72.874 59.125) rotate(2.597)" fill="#e8e8e8"/>
    <ellipse id="Ellipse_1973" data-name="Ellipse 1973" cx="5.717" cy="5.717" rx="5.717" ry="5.717" transform="translate(90.318 76.492) rotate(67.5)" fill="#e8e8e8"/>
    <ellipse id="Ellipse_1974" data-name="Ellipse 1974" cx="5.642" cy="5.642" rx="5.642" ry="5.642" transform="translate(90.644 96.609) rotate(9.217)" fill="#e8e8e8"/>
    <path id="Path_373186" data-name="Path 373186" d="M5.567,11.134a5.567,5.567,0,1,1,5.568-5.568A5.567,5.567,0,0,1,5.567,11.134Z" transform="translate(97.684 116.696)" fill="#e8e8e8"/>
    <path id="Path_373187" data-name="Path 373187" d="M5.493,10.985A5.493,5.493,0,1,1,8.246.745V10.24A5.454,5.454,0,0,1,5.493,10.985Z" transform="translate(106.156 135.757)" fill="#e8e8e8"/>
  </g>
  <g id="Group_156731" data-name="Group 156731" transform="translate(408.078 0)">
    <path id="Path_373188" data-name="Path 373188" d="M6.68,9.694A6.672,6.672,0,0,1,.724,0h11.91A6.67,6.67,0,0,1,6.68,9.694Z" fill="#e8e8e8"/>
    <path id="Path_373189" data-name="Path 373189" d="M6.571,13.142a6.571,6.571,0,1,1,6.571-6.572A6.571,6.571,0,0,1,6.571,13.142Z" transform="translate(14.515 11.351)" fill="#e8e8e8"/>
    <ellipse id="Ellipse_1975" data-name="Ellipse 1975" cx="6.462" cy="6.462" rx="6.462" ry="6.462" transform="translate(36.634 26.369) rotate(67.5)" fill="#e8e8e8"/>
    <ellipse id="Ellipse_1976" data-name="Ellipse 1976" cx="6.354" cy="6.354" rx="6.354" ry="6.354" transform="translate(46.741 44.605) rotate(67.5)" fill="#e8e8e8"/>
    <ellipse id="Ellipse_1977" data-name="Ellipse 1977" cx="6.245" cy="6.245" rx="6.245" ry="6.245" transform="translate(45.884 65.449)" fill="#e8e8e8"/>
    <ellipse id="Ellipse_1978" data-name="Ellipse 1978" cx="6.136" cy="6.136" rx="6.136" ry="6.136" transform="translate(54.078 84.678)" fill="#e8e8e8"/>
    <path id="Path_373190" data-name="Path 373190" d="M6.028,12.056A6.028,6.028,0,1,1,7.794.264V11.792A6.008,6.008,0,0,1,6.028,12.056Z" transform="translate(62.128 103.968)" fill="#e8e8e8"/>
  </g>
  <g id="Group_156732" data-name="Group 156732" transform="translate(431.331 0)">
    <path id="Path_373191" data-name="Path 373191" d="M14.434,5.655A7.217,7.217,0,1,1,2.742,0h8.951A7.2,7.2,0,0,1,14.434,5.655Z" transform="translate(0)" fill="#e8e8e8"/>
    <path id="Path_373192" data-name="Path 373192" d="M7.07,14.14a7.07,7.07,0,1,1,7.07-7.07A7.07,7.07,0,0,1,7.07,14.14Z" transform="translate(12.197 15.475)" fill="#e8e8e8"/>
    <path id="Path_373193" data-name="Path 373193" d="M6.923,13.846a6.923,6.923,0,1,1,6.923-6.923A6.923,6.923,0,0,1,6.923,13.846Z" transform="translate(22.51 33.717)" fill="#e8e8e8"/>
    <path id="Path_373194" data-name="Path 373194" d="M6.776,13.552a6.776,6.776,0,1,1,6.776-6.776A6.776,6.776,0,0,1,6.776,13.552Z" transform="translate(31.484 52.652)" fill="#e8e8e8"/>
    <path id="Path_373195" data-name="Path 373195" d="M6.629,13.258A6.629,6.629,0,1,1,6.629,0c.109,0,.215.012.323.016V13.241C6.844,13.246,6.738,13.258,6.629,13.258Z" transform="translate(39.716 71.919)" fill="#e8e8e8"/>
  </g>
  <g id="Group_156733" data-name="Group 156733" transform="translate(443.657 0)">
    <path id="Path_373196" data-name="Path 373196" d="M0,0H8.551A7.837,7.837,0,0,1,4.276,1.267,7.84,7.84,0,0,1,0,0Z" fill="#e8e8e8"/>
    <ellipse id="Ellipse_1979" data-name="Ellipse 1979" cx="7.689" cy="7.689" rx="7.689" ry="7.689" transform="translate(8.637 2.59)" fill="#e8e8e8"/>
    <ellipse id="Ellipse_1980" data-name="Ellipse 1980" cx="7.499" cy="7.499" rx="7.499" ry="7.499" transform="translate(18.994 20.874)" fill="#e8e8e8"/>
    <path id="Path_373197" data-name="Path 373197" d="M0,7.236A7.306,7.306,0,0,1,6.333,0V14.473A7.3,7.3,0,0,1,0,7.236Z" transform="translate(28.01 39.924)" fill="#e8e8e8"/>
  </g>
  <g id="Group_156734" data-name="Group 156734" transform="translate(461.299 0)">
    <path id="Path_373198" data-name="Path 373198" d="M8.069,6.331A8.314,8.314,0,0,1,0,0H16.138A8.314,8.314,0,0,1,8.069,6.331Z" fill="#e8e8e8"/>
    <path id="Path_373199" data-name="Path 373199" d="M0,7.932A8.081,8.081,0,0,1,6.547,0V15.863A8.081,8.081,0,0,1,0,7.932Z" transform="translate(10.154 8.175)" fill="#e8e8e8"/>
  </g>
</svg>
