<svg xmlns="http://www.w3.org/2000/svg" width="18.238" height="18.238" viewBox="0 0 18.238 18.238">
  <g id="vuesax_linear_location" data-name="vuesax/linear/location" transform="translate(0 0)">
    <g id="icn-location" transform="translate(0 0)">
      <path id="Vector" d="M4.742,2.371A2.371,2.371,0,1,1,2.371,0,2.371,2.371,0,0,1,4.742,2.371Z" transform="translate(6.748 5.464)" fill="none" stroke="#fff" stroke-linecap="round" stroke-linejoin="round" stroke-width="1.3"/>
      <path id="Vector-2" data-name="Vector" d="M.184,4.932c1.5-6.581,11.247-6.573,12.736.008.874,3.86-1.527,7.128-3.632,9.15a3.947,3.947,0,0,1-5.479,0C1.712,12.068-.689,8.792.184,4.932Z" transform="translate(2.566 1.52)" fill="none" stroke="#fff" stroke-linecap="round" stroke-linejoin="round" stroke-width="1.3"/>
      <path id="Vector-3" data-name="Vector" d="M0,0H18.238V18.238H0Z" transform="translate(18.238 18.238) rotate(180)" fill="none" opacity="0"/>
    </g>
  </g>
</svg>
